<svg version="1.2" baseProfile="tiny-ps" xmlns="http://www.w3.org/2000/svg" viewBox="0 0 400 400" width="400" height="400">
	<title>branded-folders-and-notebooks-concept-icon-corporate-brand-abstract-idea-thin-line-illustration-prom-eps</title>
	<style>
		tspan { white-space:pre }
		.shp0 { fill: #000000 } 
	</style>
	<path id="Path 1" fill-rule="evenodd" class="shp0" d="M188.48 0.63L199.04 0.48L198.73 2.15C198.43 4.36 196.46 4.81 183.62 5.42C176.03 5.72 173.75 5.57 172.61 4.74C170.79 3.44 171.85 2.15 175.5 1.39C176.87 1.09 182.71 0.71 188.48 0.63ZM226.6 2.08C239.73 3.75 243.3 4.66 243.53 6.25C243.83 8.99 242.62 9.9 239.81 9.06C238.37 8.68 234.65 7.92 231.53 7.39C219.01 5.49 217.11 4.96 217.11 3.6C217.11 2.91 217.34 2.08 217.64 1.85C218.25 1.16 219.39 1.16 226.6 2.08ZM299.34 2.99C302.68 4.74 304.04 7.01 304.57 11.95L304.8 13.85L315.2 14.07C325.91 14.3 327.12 14.68 325.98 17.64C325.61 18.63 323.56 18.78 312.55 18.63C301.23 18.4 299.57 18.25 298.81 17.11C298.2 16.12 298.2 15.37 298.96 14.23C300.25 12.1 300.1 10.2 298.43 8.3C296.68 6.18 293.79 6.18 291.67 8.15C289.77 9.9 289.54 12.71 290.98 15.06C291.74 16.35 291.67 16.73 290.45 17.72C289.32 18.55 286.2 18.78 277.09 18.78C266.61 18.78 265.02 18.63 263.95 17.41C261.6 14.83 263.35 14.3 274.43 14.07L285.06 13.85L285.29 11.95C285.82 7.16 286.96 5.12 290.38 3.06C292.35 1.92 297.21 1.85 299.34 2.99ZM151.81 5.19C152.57 5.12 154.85 7.16 154.85 7.92C154.85 9.06 151.81 10.88 149.15 11.41C147.94 11.64 145.66 12.17 144.22 12.63C139.43 14 135.49 15.06 133.59 15.52C132.53 15.74 131.46 16.35 131.16 16.73C130.47 17.87 128.27 15.9 128.27 14.15C128.27 13.24 128.8 12.71 129.79 12.71C130.63 12.71 131.31 12.4 131.31 12.1C131.31 11.49 136.02 9.82 146.5 6.71C149.23 5.95 151.58 5.27 151.81 5.19ZM233.43 21.89L294.78 21.89C355.45 21.82 356.05 21.82 357.57 23.34C358.48 24.25 359.47 25.77 359.85 26.83C360.31 27.89 360.61 59.02 360.61 104.58C360.61 185.89 360.69 184.53 356.96 186.5C355.9 187.11 336.77 187.34 294.78 187.34C227.36 187.34 231.61 187.64 230.01 182.18C229.48 180.28 229.33 153.85 229.48 102.68L229.64 25.92L231.53 23.94L233.43 21.89ZM294.48 26.37C236.55 26.37 235.33 26.37 234.57 27.89C233.58 29.64 233.89 181.57 234.8 182.56C235.63 183.31 354.23 183.39 354.99 182.56C355.37 182.25 355.6 147.48 355.52 105.26C355.45 46.72 355.22 28.35 354.53 27.44C353.7 26.53 345.19 26.37 294.48 26.37ZM343.6 35.64C344.44 36.55 344.82 49.08 344.28 60.69C343.75 73.52 343.37 74.97 340.79 73.37C339.96 72.84 339.73 69.65 339.58 56.97C339.5 38.52 339.5 39.28 338.82 39.36C338.44 39.43 335.93 39.43 333.12 39.36C329.56 39.28 327.73 38.9 326.82 38.07C325.15 36.4 326.14 35.64 330.24 35.33C334.94 35.03 343.15 35.18 343.6 35.64ZM245.96 35.49L254.16 35.49C263.04 35.49 265.09 36.09 263.72 38.29C263.04 39.36 261.68 39.74 256.67 39.89L250.52 40.12L250.52 56.75C250.52 72.69 250.44 73.37 249 73.83C248.16 74.05 247.18 74.05 246.72 73.83C246.26 73.52 245.96 66.31 245.96 54.39L245.96 35.49Z" />
	<path id="Path 2" fill-rule="evenodd" class="shp0" d="M310.12 43.15C313.76 43 320.45 54.39 322.04 63.35C325.07 81.19 313.23 99.34 295.61 103.82C288.94 105.56 284.98 105.72 279.22 104.5C270.79 102.75 260.08 96.07 260.54 92.96C260.69 92.05 271.55 80.51 284.68 67.3C299.49 52.41 309.21 43.15 310.12 43.15ZM308.22 49.83C308.22 50.21 304.73 54.01 300.48 58.34C293.87 64.94 292.96 66.16 294.25 66.62C295.01 66.84 300.55 67 306.55 66.77L317.33 66.46L317.33 64.41C317.25 61.6 314.9 55.07 312.7 51.88C311.03 49.45 308.22 48.16 308.22 49.83ZM316.95 71.55L304.95 71.32C297.13 71.17 292.96 71.4 293.19 71.93C293.26 72.31 297.13 76.41 301.69 81.04C308.45 87.8 310.2 89.24 311.03 88.48C313.23 86.66 316.72 78.54 316.87 75.04L316.95 71.55ZM284 75.88C283.39 74.81 266.23 92.28 266.69 93.49C267.3 95.01 276.56 99.19 280.51 99.8L283.92 100.25L284 93.11C284 89.17 284.15 83.85 284.23 81.34C284.38 78.76 284.3 76.33 284 75.88ZM294.7 80.74L288.48 74.74L288.4 77.7C288.33 88.03 288.63 99.72 289.09 100.17C289.62 100.71 300.7 97.82 301.39 96.99C301.61 96.76 302.9 95.77 304.27 94.78L306.78 93.04L303.81 89.92C302.22 88.18 298.12 84 294.7 80.74ZM297.44 119.92C341.86 120.14 343.53 120.22 343.75 121.59C343.91 122.34 343.6 123.25 342.99 123.63C341.4 124.7 251.73 124.47 250.67 123.41C250.14 122.88 250.06 122.12 250.59 121.13C251.27 119.84 253.17 119.76 297.44 119.92ZM342.99 129.26C344.13 129.64 344.21 132.44 343.07 132.82C342.62 132.97 321.74 132.97 296.6 132.9L250.89 132.67L250.67 130.85C250.44 128.95 250.52 128.95 256.74 128.72C266.16 128.42 341.86 128.88 342.99 129.26ZM297.36 155.45L343.98 155.45L343.75 157.5L343.53 159.63L298.05 159.85C257.2 160.01 252.41 159.93 251.2 158.79C250.44 158.11 250.06 157.12 250.29 156.51C250.59 155.6 257.96 155.45 297.36 155.45ZM297.51 164.56C346.03 164.56 345.42 164.48 343.75 167.75C343.15 169.04 340.11 169.12 297.13 169.12C257.05 169.12 251.2 168.96 250.82 167.98C250.52 167.37 250.52 166.3 250.82 165.7C251.2 164.71 257.05 164.56 297.51 164.56ZM175.2 24.25C179.3 25.31 182.41 27.21 185.37 30.55C190 35.64 189.77 31.38 189.77 105.18C189.77 165.32 189.62 173.06 188.56 175.64C186.59 180.51 183.7 183.62 179.6 185.44L175.73 187.26L121.82 187.41C72.16 187.64 67.68 187.56 65.48 186.35C61.61 184.3 61.08 182.71 60.7 170.26L60.32 158.87L53.86 158.64C48.4 158.49 47.03 158.18 45.44 156.74C40.28 152.26 39.29 146.34 42.7 141.02C45.28 137.15 48.78 135.71 55.46 135.71L60.7 135.71L60.7 109.89L55 109.89C49.01 109.89 47.18 109.29 43.84 105.94C39.52 101.62 39.74 94.4 44.53 89.7C47.03 87.19 47.26 87.12 53.03 87.12C57.2 87.12 59.26 86.81 59.86 86.05C60.47 85.37 60.7 81.19 60.55 72.99L60.32 60.92L53.56 60.39C47.41 59.93 46.65 59.71 44.37 57.5C41.57 54.77 40.2 50.97 40.73 47.41C41.19 44.44 43.77 40.34 45.89 39.43C49.23 37.84 53.86 36.85 55.46 37.23C56.44 37.54 58.04 37.54 58.95 37.31C60.4 36.93 60.7 36.32 60.7 33.89C60.7 29.79 63.96 24.86 66.69 24.86C67.76 24.86 69.2 24.48 69.81 24.1C71.56 22.96 170.64 23.11 175.2 24.25ZM121.97 28.04L69.73 27.82L65.18 32.67L65.63 55.61L68.14 55.83C69.96 55.99 70.57 55.76 70.57 54.85C70.57 52.79 76.34 47.79 79.3 47.18C82.57 46.57 87.5 47.25 87.88 48.39C88.03 48.77 88.64 49.15 89.17 49.15C90.69 49.15 93.35 54.01 93.5 56.9C93.65 61.83 91.98 65.7 88.94 67.68C84.62 70.49 82.04 70.71 77.63 68.74C74.67 67.45 73.38 66.31 72.01 63.8C70.42 60.92 69.89 60.46 67.91 60.69L65.63 60.92L65.4 83.09L65.25 105.34L67.83 105.34C69.96 105.34 70.57 104.96 71.25 103.21C72.32 100.48 74.74 97.75 76.19 97.75C76.79 97.75 77.55 97.37 77.78 96.99C78.39 95.92 84.62 96 86.74 97.14C87.65 97.59 88.87 98.2 89.47 98.51C91.22 99.26 93.5 104.35 93.5 107.31C93.5 119.23 78.39 123.48 72.16 113.23C70.49 110.42 69.81 109.97 67.68 109.89L65.25 109.89L65.4 132.06L65.63 154.23L67.91 154.46C69.96 154.69 70.49 154.38 71.94 151.8C74.29 147.55 75.96 146.34 80.14 145.88C88.56 144.89 93.35 149.07 93.35 157.19C93.35 161.52 93.2 161.83 90.23 164.64C86.66 167.98 84.69 168.74 80.44 168.13C76.49 167.6 73.38 165.32 71.71 161.6C70.49 158.87 70.04 158.49 67.76 158.49L65.25 158.49L65.25 168.43C65.25 176.48 65.48 178.83 66.54 180.58L67.83 182.78L175.96 182.78L179.3 180.28C185.22 175.72 184.84 180.96 185.07 107.24C185.22 62.29 185.07 40.27 184.46 38.37C183.55 35.11 180.51 31.69 176.87 29.71C174.36 28.35 171.63 28.27 121.97 28.04ZM60.32 42.7L55.38 42.47C52.5 42.39 49.69 42.7 48.55 43.3C46.88 44.14 46.65 44.82 46.42 48.85L46.19 53.48L48.93 54.77C50.68 55.61 53.03 55.99 55.99 55.83L60.32 55.61L60.32 42.7ZM79.15 52.64C72.54 55.91 75.5 66.01 82.72 64.72C86.59 64.03 88.79 61.6 88.79 58.26C88.79 56.37 88.26 55 87.12 53.93C84.69 51.73 81.96 51.28 79.15 52.64ZM60.78 91.67L54.85 91.67C48.47 91.75 47.56 92.2 46.19 96.23C45.06 99.42 46.42 103.21 49.23 104.42C50.53 104.96 53.41 105.34 55.91 105.18L60.32 104.96L60.55 98.28L60.78 91.67ZM77.25 103.21C75.35 105.26 75.05 106.1 75.43 108.38C76.26 113.76 82.57 116.19 86.74 112.63C89.47 110.27 89.55 106.32 86.82 103.13C84.08 99.8 80.36 99.87 77.25 103.21ZM60.7 140.26L56.75 140.34C52.57 140.42 48.47 141.55 46.95 143.07C46.42 143.6 46.04 145.5 45.97 147.4C45.82 152.64 47.79 154.16 54.32 154.08C57.58 154.01 59.64 153.63 60.09 153.02C60.4 152.49 60.7 149.38 60.7 146.11L60.7 140.26ZM76.19 154.08C72.77 160.77 81.81 166.84 86.97 161.3C89.55 158.49 89.4 154.84 86.66 152.18C83.1 148.77 78.46 149.6 76.19 154.08Z" />
	<path id="Path 3" fill-rule="evenodd" class="shp0" d="M127.13 73.52L136.4 73.45C141.79 73.45 145.81 73.75 146.12 74.21C146.34 74.59 147.25 74.97 148.17 74.97C149 74.97 150.59 75.57 151.66 76.33C152.8 77.09 155 78.38 156.67 79.14C160.69 81.27 166.16 87.5 168.97 93.26C175.65 106.78 172.92 123.71 162.44 134.26C159.1 137.61 157.58 138.75 152.42 141.63C147.79 144.29 144.3 144.97 136.02 144.89C130.55 144.89 126.91 144.44 124.86 143.68C123.19 143 121.21 142.31 120.53 142.01C119.77 141.78 119.16 141.33 119.16 140.95C119.16 140.57 118.63 140.26 118.02 140.26C114.91 140.26 103.22 127.13 103.22 123.56C103.22 122.88 102.91 122.04 102.46 121.59C100.41 119.54 99.72 100.71 101.62 98.13C101.93 97.67 102.76 95.77 103.52 93.72C104.28 91.75 105.12 90.15 105.49 90.15C105.87 90.15 106.33 89.47 106.63 88.63C107.62 85.52 114.38 79.83 120.76 76.64L127.13 73.52ZM124.1 79.98C122.05 80.74 119.84 82.03 119.31 82.71C118.78 83.47 117.79 84.08 117.19 84.08C116.58 84.08 116.12 84.38 116.12 84.84C116.12 85.22 115.67 85.6 115.21 85.6C113.47 85.67 106.86 96.91 105.8 101.46C104.05 108.68 104.89 117.18 107.7 122.42C109.82 126.37 113.24 131.15 113.92 131.15C114.23 131.15 114.68 131.76 114.91 132.52C115.14 133.28 118.4 135.33 122.35 137.23C129.33 140.49 129.49 140.57 137.31 140.42C141.71 140.42 145.59 139.96 145.96 139.58C146.42 139.13 147.33 138.75 147.94 138.75C148.62 138.75 149.99 138.06 151.05 137.23C152.11 136.39 153.41 135.71 153.94 135.71C155.84 135.71 162.44 127.66 165.17 122.04C167.83 116.73 167.98 116.04 167.91 109.06C167.91 102.38 167.68 101.31 165.4 96.91C162.29 90.68 158.64 85.6 157.35 85.6C156.82 85.6 156.14 85.06 155.91 84.46C155.68 83.85 153.03 82.18 150.06 80.74C141.94 76.87 133.06 76.64 124.1 79.98Z" />
	<path id="Path 4" fill-rule="evenodd" class="shp0" d="M153.86 90.15C155.84 90.23 160.16 96.53 161.83 101.77C164.87 111.56 161.68 123.33 154.17 129.56C148.32 134.49 144.22 135.93 136.09 135.93C132.3 135.93 128.65 135.63 128.12 135.17C127.59 134.72 126.22 134.19 125.16 133.96C122.81 133.35 116.88 128.34 116.88 126.98C116.88 126.44 120.15 122.8 124.1 118.85C128.04 114.98 131.61 111.41 132.07 111.03C132.45 110.58 137.23 105.72 142.7 100.17C148.17 94.55 153.1 90.15 153.86 90.15ZM154.17 96.68C153.33 96.15 143.46 105.49 143.46 106.7C143.46 107.69 154.39 108 156.67 107.16C158.26 106.55 158.19 104.73 156.37 100.55C155.53 98.58 154.55 96.83 154.17 96.68ZM150.29 112.17C146.12 112.17 142.7 112.32 142.7 112.47C142.7 113 152.8 122.8 153.25 122.8C154.92 122.72 157.88 116.88 157.88 113.69C157.88 112.25 157.35 112.17 150.29 112.17ZM144.22 120.9L138.9 115.66L138.9 123.41C138.9 131.15 138.9 131.15 140.8 131.15C142.7 131.15 148.92 128.04 149.3 126.9C149.46 126.52 147.18 123.79 144.22 120.9ZM133.51 117.03C132.98 116.73 122.96 126.06 122.96 126.9C122.96 127.81 130.32 131.15 132.22 131.15L134.42 131.15L134.27 124.32C134.2 120.52 133.89 117.26 133.51 117.03ZM31.09 98.88C31.09 99.57 28.66 105.03 25.62 111.11C20.99 120.3 19.93 122.04 18.64 121.89C17.72 121.74 16.96 121.05 16.81 120.37C16.58 119.08 20.38 110.5 21.44 110.05C21.75 109.89 21.98 109.21 22.05 108.53C22.05 107.77 22.89 105.87 23.87 104.2C24.86 102.53 26.07 100.4 26.45 99.42C27.37 97.44 31.09 96.99 31.09 98.88ZM382.86 123.94C387.11 134.64 388.09 139.2 386.04 139.96C384.37 140.64 384.3 140.49 379.13 127.58C375.57 118.47 375.03 116.57 375.79 115.59C377.84 113.16 379.21 114.75 382.86 123.94ZM12.71 141.25C12.94 143.07 11.5 149.3 8.99 157.42C8.61 158.71 8.31 160.61 8.31 161.68C8.31 162.74 7.78 164.03 7.17 164.56C5.35 166.08 3.75 164.86 3.75 162.13C3.75 158.94 7.09 145.35 8.84 141.55C10.28 138.21 12.33 138.06 12.71 141.25ZM393.11 158.71C394.47 160.31 397.13 182.18 396.14 183.31C395.23 184.45 394.78 184.53 393.49 183.69C392.42 183.01 389 160.69 389.69 158.94C390.3 157.5 392.04 157.35 393.11 158.71ZM2.46 182.78C4.97 182.78 5.27 184.68 4.89 196.9C4.66 203.51 4.51 209.2 4.51 209.51C4.51 210.72 0.87 210.04 0.41 208.82C-0.35 207 0.03 186.58 0.79 184.45C1.17 183.54 1.93 182.78 2.46 182.78ZM395.16 202.52C397.05 202.52 397.05 202.6 396.98 208.75C396.98 212.24 396.52 218.09 396.07 221.89C395.31 227.5 394.93 228.72 393.71 228.94C391.06 229.48 390.83 228.19 391.74 216.87C392.27 210.88 392.8 205.18 392.96 204.19C393.18 202.98 393.79 202.52 395.16 202.52Z" />
	<path id="Path 5" fill-rule="evenodd" class="shp0" d="M76.79 208.6L137.76 208.6C192.13 208.6 198.81 208.75 199.72 209.81C200.93 211.26 204.5 213.15 206.02 213.15C206.63 213.15 208.38 212.09 209.74 210.88L212.4 208.6L272.76 208.6C317.86 208.6 333.73 208.82 335.17 209.51C339.5 211.48 339.35 207.99 339.35 302.75L339.35 389.84L337.6 392.42C335.93 394.92 335.7 395 329.48 395.53C325.91 395.83 298.81 395.98 269.12 395.98L215.21 395.91L212.25 397.88C208.07 400.77 203.36 400.69 198.81 397.73L195.47 395.53L137 395.68C104.89 395.76 77.78 395.6 76.87 395.3C76.03 395 74.52 393.93 73.68 393.02L72.09 391.28L72.09 213L74.44 210.8L76.79 208.6ZM195.85 213.15L137.23 213.15C87.5 213.23 78.39 213.38 77.63 214.29C76.87 215.13 76.64 233.88 76.64 302.67C76.64 384.14 76.72 389.91 77.93 390.37C78.84 390.75 168.36 391.05 194.94 390.82C195.62 390.82 195.85 372.52 195.85 301.99L195.85 213.15ZM273.97 213.15C227.81 213.15 215.59 213.38 215.59 214.06C215.51 214.6 215.44 222.19 215.36 231L215.21 246.94L211.41 246.94L211.18 232.14L211.03 217.33L200.4 217.33L200.4 305.33C200.4 388.24 200.48 393.4 201.77 394.31C204.05 396.06 208.07 395.6 210.43 393.33C212.47 391.43 212.93 391.28 218.7 391.5C222.04 391.58 226.9 391.43 229.48 391.2L234.19 390.67L234.19 381.71L229.48 381.71C225.46 381.71 224.7 381.48 224.7 380.34C224.7 379.66 224.62 345.42 224.55 304.27C224.47 263.11 224.62 229.02 224.93 228.49C225.38 227.81 236.32 227.58 275.19 227.58C305.33 227.58 325 227.88 325.3 228.26C325.53 228.72 325.76 240.49 325.83 254.46C325.98 268.5 326.06 279.97 326.14 279.97C326.21 279.97 328.19 279.13 330.54 278.07L334.79 276.17L334.79 245.88C334.79 219.3 334.64 215.35 333.58 214.37C332.52 213.31 326.06 213.15 273.97 213.15ZM321.13 232.14L229.41 232.14L228.95 234.03C228.65 235.1 228.5 267.74 228.57 306.54L228.72 377.16L233.66 377.16L234.04 359.46C234.42 340.33 234.95 336.84 239.13 327.96C241.78 322.18 244.82 318.16 250.06 313.15C253.93 309.43 261.9 304.27 263.72 304.27C264.18 304.27 264.94 303.96 265.4 303.66C265.78 303.28 268.13 302.21 270.64 301.3C276.48 299.1 277.47 298.65 281.8 296.75C283.77 295.84 285.67 295.16 285.97 295.16C286.5 295.16 302.45 289.08 312.02 285.13C315.13 283.84 318.47 282.55 319.46 282.17L321.13 281.49L321.13 232.14ZM334.26 281.56C333.88 281.56 332.14 282.25 330.24 283.01C326.29 284.6 310.88 290.6 298.73 295.23C294.17 296.98 289.01 298.95 287.34 299.71C285.67 300.47 282.78 301.53 280.89 302.06C278.99 302.59 277.32 303.28 277.09 303.51C276.86 303.81 276.03 304.19 275.19 304.42C267.75 306.62 258.11 311.63 253.78 315.66C247.48 321.57 241.78 331.07 239.81 339.19C239.13 342.23 238.82 349.82 238.75 366.75C238.75 386.72 238.9 390.22 239.89 390.82C240.57 391.28 259.02 391.58 286.2 391.58C325.91 391.58 331.61 391.43 333.12 390.37L334.79 389.23L334.79 335.32C334.79 305.71 334.57 281.49 334.26 281.56Z" />
	<path id="Path 6" fill-rule="evenodd" class="shp0" d="M151.05 249.67C180.36 261.52 188.26 297.89 166.46 319.98C156.21 330.31 142.47 334.79 128.58 332.28C123.19 331.37 119.16 330 119.16 329.17C119.16 328.87 118.63 328.56 117.95 328.56C116.05 328.56 107.77 322.71 104.13 318.77C100.56 314.9 94.87 304.57 94.87 301.99C94.87 301.07 94.49 299.63 94.03 298.8C92.74 296.45 93.04 284.83 94.56 279.21C97.67 266.99 105.57 257.19 116.5 251.95C122.58 248.99 123.49 248.69 127.89 248C134.73 246.94 146.42 247.77 151.05 249.67ZM115.75 257.49C104.2 265.16 97.9 276.63 97.9 289.76C97.9 292.95 98.36 297.2 98.96 299.33C100.48 305.18 105.8 315.05 108.3 316.64C108.83 316.95 109.67 317.63 110.2 318.16C110.73 318.69 112.94 320.28 114.99 321.73C117.11 323.17 118.93 324.61 119.01 324.92C119.16 325.3 119.84 325.53 120.53 325.53C121.29 325.53 123.87 326.21 126.3 327.04C128.95 327.96 132.83 328.56 135.79 328.56C158.95 328.49 177.17 307.76 173.91 284.98C172.77 276.93 168.82 268.81 163.58 263.65C158.04 258.25 154.85 255.67 153.71 255.67C153.1 255.67 151.05 254.99 149 254.08C139.36 249.98 124.93 251.42 115.75 257.49Z" />
	<path id="Path 7" fill-rule="evenodd" class="shp0" d="M156.59 267.82C158.26 267.82 162.29 272.53 164.26 277.01C168.59 286.42 168.59 295.08 164.11 304.49C158.26 316.79 143.69 324.31 130.85 321.73C126.07 320.74 119.16 317.93 119.16 317.02C119.16 316.64 118.78 316.41 118.4 316.41C117.19 316.41 113.09 312.46 113.09 311.32C113.09 310.72 122.66 300.7 134.35 289.08C146.04 277.39 155.99 267.82 156.59 267.82ZM156.67 274.12C155.91 273.9 142.7 286.88 142.7 287.86C142.7 288.09 147.18 288.32 152.65 288.32L162.67 288.32L162.14 285.13C161.83 283.39 160.69 280.27 159.55 278.15C158.42 276.1 157.13 274.28 156.67 274.12ZM162.67 292.88L141.71 292.88L143.16 294.55C146.95 298.8 155.76 306.92 156.59 306.92C157.88 306.92 161.53 299.86 162.14 296.07L162.67 292.88ZM133.44 296.67C133.29 296.67 129.94 299.94 126 303.96C119.01 310.95 118.86 311.17 120.3 312.31C123.11 314.44 127.36 316.34 130.47 316.87L133.59 317.4L133.59 307C133.59 301.3 133.51 296.67 133.44 296.67ZM138.45 296.75C138.22 296.52 138.22 301 138.29 306.62L138.52 316.79L141.41 316.64C144.45 316.41 151.89 312.84 152.34 311.4C152.49 310.95 149.53 307.53 145.74 303.81C141.94 300.09 138.67 296.9 138.45 296.75ZM136.25 346.79C163.73 346.79 178.46 347.09 178.76 347.54C178.99 348 178.99 348.99 178.76 349.82C178.31 351.34 177.55 351.34 136.25 351.34C108.76 351.34 94.03 351.04 93.73 350.58C93.5 350.12 93.5 349.14 93.73 348.3C94.18 346.79 94.94 346.79 136.25 346.79ZM178.38 361.67C178.84 362.12 178.99 363.03 178.69 363.71C178.23 364.93 174.67 365.01 135.79 365.01C95.4 365.01 93.35 364.93 93.35 363.64C93.35 362.88 93.8 361.82 94.26 361.36C95.55 360.07 177.09 360.38 178.38 361.67ZM305.79 246.71C307.16 246.64 308.98 246.94 309.82 247.32C311.64 248.31 311.71 250.89 309.97 251.34C309.21 251.5 301.61 251.57 293.03 251.5C284.45 251.42 268.97 251.34 258.64 251.27C242.47 251.12 239.81 250.96 239.35 249.98C239.13 249.29 239.2 248.53 239.51 248.23C239.73 247.93 254.23 247.55 271.62 247.32C289.01 247.09 304.42 246.86 305.79 246.71ZM274.2 260.99C292.73 260.99 308.6 261.21 309.59 261.44C310.8 261.82 311.26 262.43 311.11 263.57L310.88 265.16L275.72 265.39C244.97 265.54 240.57 265.39 240.19 264.41C239.89 263.8 239.89 262.73 240.19 262.13C240.57 261.14 245.05 260.99 274.2 260.99Z" />
	<path id="Path 8" fill-rule="evenodd" class="shp0" d="M308.83 317.17C310.57 317.17 314.44 321.88 316.87 327.04C319.08 331.6 319.23 332.58 319.23 340.33C319.23 348.23 319.08 348.99 316.8 353.69C314.14 359.16 307.16 366.3 302.75 368.27C296.3 371.08 294.7 371.46 287.72 371.38C281.34 371.38 279.9 371.08 275.49 369.03C269.57 366.3 265.7 363.11 265.7 360.91C265.7 359.92 272.99 352.1 286.81 338.28C298.35 326.67 308.3 317.17 308.83 317.17ZM308.98 323.25C308.75 323.25 305.33 326.44 301.46 330.23L294.4 337.29L304.42 337.52C309.97 337.6 314.67 337.52 314.82 337.37C315.58 336.61 313.31 329.02 311.41 326.21C310.35 324.61 309.28 323.25 308.98 323.25ZM304.8 342.23C299.19 342.23 294.55 342.45 294.55 342.83C294.55 343.14 297.74 346.56 301.69 350.5L308.75 357.57L310.73 355.06C312.85 352.25 315.05 346.63 315.05 343.9C315.05 342.23 314.9 342.23 304.8 342.23ZM285.9 346.03C285.74 346.03 282.33 349.37 278.38 353.39C272.76 359.01 271.24 360.98 271.85 361.74C273.29 363.49 280.73 366.53 283.47 366.53L286.2 366.53L286.2 356.28C286.2 350.66 286.05 346.03 285.9 346.03ZM291.29 346.79C290.98 346.79 290.76 351.41 290.76 357.11C290.76 366.53 290.83 367.36 292.12 367.06C298.96 365.23 300.78 364.47 302.9 362.73L305.41 360.68L298.58 353.77C294.85 349.9 291.59 346.79 291.29 346.79ZM7.09 229.63C7.32 230.39 8.23 234.41 9.07 238.59C9.9 242.77 10.97 247.55 11.5 249.29C12.48 252.79 11.95 254.91 10.28 254.91C8.77 254.91 7.09 251.65 6.03 246.56C3.83 235.7 2.92 230.31 3.3 229.4C3.9 227.88 6.64 228.11 7.09 229.63ZM390.98 248.76C390.98 249.52 386.2 264.63 384.45 269.11C383.54 271.69 382.86 272.38 381.41 272.38C380.2 272.38 379.59 271.92 379.59 271.01C379.59 269.03 386.65 247.77 387.49 247.17C388.32 246.56 390.98 247.77 390.98 248.76ZM20.53 275.19C23.42 281.79 28.43 291.74 29.04 291.96C29.95 292.42 29.65 294.93 28.51 295.84C27.06 297.05 25.24 296.14 24.33 293.79C23.87 292.65 23.19 291.2 22.81 290.6C21.22 288.17 15.14 274.81 15.14 273.74C15.14 273.14 15.37 272.38 15.67 272.15C17.12 270.63 19.02 271.84 20.53 275.19ZM373.97 290.14C374.88 292.42 362.96 312.01 360.46 312.46C359.77 312.62 358.86 312.08 358.48 311.32C357.87 310.26 358.63 308.59 362.05 303.35C364.41 299.71 367.21 295 368.35 292.88C370.48 289 373.06 287.79 373.97 290.14ZM43.08 314.44C44.37 316.19 46.35 318.77 47.56 320.06C48.7 321.35 50.45 323.32 51.36 324.54C52.27 325.68 53.71 327.5 54.55 328.49C56.37 330.54 56.29 331.45 54.32 332.66C53.26 333.34 52.5 332.96 50.22 330.38C43.46 322.87 37.16 314.59 37.16 313.22C37.16 312.62 37.54 311.78 38 311.32C39.29 310.03 40.5 310.79 43.08 314.44Z" />
</svg>