<svg version="1.2" baseProfile="tiny-ps" xmlns="http://www.w3.org/2000/svg" viewBox="0 0 400 400" width="400" height="400">
	<title>shaping-audience-perception-concept-icon-strong-brand-abstract-idea-thin-line-illustration-customer--eps</title>
	<style>
		tspan { white-space:pre }
		.shp0 { fill: #000000 } 
		.shp1 { fill: none;stroke: #1a1a1a;stroke-linejoin:round;stroke-width: 3.746 } 
		.shp2 { fill: #000000;stroke: #1a1a1a;stroke-width: 1.498 } 
		.shp3 { fill: none;stroke: #1a1a1a;stroke-linecap:round;stroke-linejoin:round;stroke-width: 3.746 } 
		.shp4 { fill: none;stroke: #1a1a1a;stroke-linecap:round;stroke-width: 3.746 } 
		.shp5 { fill: #1a1a1a } 
	</style>
	<path id="Path 1" class="shp0" d="M186.14 0.14C182.59 0.46 176.73 1.08 171.88 1.63C166.49 2.25 165.63 2.64 165.63 4.44C165.63 6.74 166.65 6.94 173.45 5.96C177.08 5.42 178.84 5.26 184.89 4.83C191.3 4.36 192.43 3.93 192.32 2.1C192.32 1.39 192.12 0.65 191.92 0.49C191.38 -0.01 189.39 -0.13 186.14 0.14ZM211.61 0.81C211.07 1.43 210.99 1.86 211.26 2.88C211.65 4.48 211.34 4.4 222.67 5.57C227.08 6.04 231.3 6.59 232.08 6.78C234.08 7.29 236.89 7.21 237.43 6.66C238.14 5.96 237.98 4.2 237.16 3.46C236.73 3.07 235.25 2.6 233.72 2.41C228.33 1.63 225.09 1.24 221.11 0.88C218.84 0.65 215.95 0.38 214.66 0.26C212.63 0.07 212.2 0.14 211.61 0.81Z" />
	<g id="\321\353\356\351 1">
		<g id="&lt;Group&gt;">
			<g id="&lt;Group&gt;">
				<path id="&lt;Path&gt;" class="shp1" d="M47.53 52.27C47.53 38.1 59.02 26.62 73.19 26.62C87.37 26.62 98.86 38.1 98.86 52.27C98.86 66.44 87.37 77.93 73.19 77.93C59.02 77.93 47.53 66.44 47.53 52.27Z" />
				<path id="&lt;Path&gt;" class="shp2" d="M66.27 149.6C66.27 148.44 69.45 147.5 73.38 147.5C77.31 147.5 80.5 148.44 80.5 149.6C80.5 150.76 77.31 151.7 73.38 151.7C69.45 151.7 66.27 150.76 66.27 149.6Z" />
			</g>
			<g id="&lt;Group&gt;">
				<path id="&lt;Path&gt;" class="shp3" d="M247.78 327.4L259.44 313.94L247.21 301.94" />
			</g>
			<g id="&lt;Group&gt;">
				<path id="&lt;Path&gt;" class="shp3" d="M284.97 328.14C284.97 304.41 304.21 285.18 327.95 285.18C351.68 285.18 370.93 304.41 370.93 328.14C370.93 351.87 351.68 371.11 327.95 371.11C304.21 371.11 284.97 351.87 284.97 328.14Z" />
				<g id="&lt;Group&gt;">
				</g>
			</g>
		</g>
	</g>
	<path id="Path 2" fill-rule="evenodd" class="shp0" d="M286.81 2.06C290.21 2.72 292.36 3.31 292.75 3.66C292.98 3.85 293.38 4.01 293.65 4.01C294.35 4.01 299.12 6.24 299.43 6.7C299.55 6.94 299.94 7.13 300.25 7.13C300.99 7.13 304.63 9.59 307.36 11.98C309.82 14.08 314.31 19.28 314.67 20.41C314.78 20.84 315.06 21.19 315.21 21.19C315.76 21.19 319.51 29.63 320.29 32.63C322.24 40.21 322.17 47.44 320.1 55.09C316.93 66.65 308.81 76.34 297.79 81.61C295.41 82.74 293.22 83.68 292.91 83.68C292.63 83.68 291.66 83.95 290.72 84.26C289.78 84.61 286.97 85.16 284.47 85.47C280.64 86.02 279.31 86.06 275.8 85.63C271.42 85.16 270.87 85.04 266.7 83.72C261.15 81.96 257.24 79.77 252.36 75.79C248.37 72.55 243.02 65.83 242.98 64.03C242.98 63.68 242.83 63.37 242.59 63.37C241.73 63.37 239.27 56.89 238.29 51.89C237.08 45.87 237.43 37.09 239.12 31.82C240.56 27.28 243.61 20.92 244.93 19.63C245.05 19.51 245.64 18.65 246.3 17.76C247.63 15.72 254.23 9.48 254.98 9.48C255.25 9.48 255.48 9.28 255.48 9.09C255.48 8.85 255.72 8.7 256.03 8.7C256.3 8.7 256.77 8.46 257.04 8.15C258.33 6.55 268.3 2.49 271.03 2.41C271.81 2.37 272.91 2.21 273.45 2.06C274.9 1.59 284.43 1.59 286.81 2.06ZM274.43 6.35C270.05 7.05 269.27 7.25 267.2 8.03C263.49 9.44 258.49 12.21 256.15 14.16C255.09 15.02 251.5 18.58 250.6 19.67C247.16 23.77 244.31 29.43 242.75 35.25C241.89 38.41 241.81 48.02 242.55 51.26C244.35 58.68 247.55 64.66 252.51 69.7C258.45 75.75 263.77 78.64 273.18 80.9C275.52 81.45 282.91 81.45 285.64 80.9C289.2 80.2 294.82 78.25 297.56 76.76C300.13 75.44 302.2 73.91 305.25 71.18C307.28 69.34 307.2 69.42 309.78 66.1C310.53 65.13 311.23 64.27 311.34 64.15C311.93 63.68 314.08 58.96 315.17 55.95C316.81 51.26 317.32 47.51 317.13 41.81C316.97 38.18 316.66 36.15 315.88 33.49C314.71 29.59 311.89 23.69 310.37 22.05C309.82 21.47 309.39 20.88 309.39 20.76C309.39 20.65 309 20.1 308.53 19.55C308.02 19.04 307.09 17.99 306.46 17.25C305.8 16.51 304.2 15.14 302.95 14.16C301.66 13.19 300.56 12.29 300.49 12.09C300.41 11.94 300.1 11.82 299.82 11.82C299.55 11.82 299.23 11.7 299.16 11.51C298.81 10.73 292.59 8.15 288.06 6.94C285.64 6.27 277.09 5.92 274.43 6.35Z" />
	<path id="Path 3" fill-rule="evenodd" class="shp0" d="M301.97 22.99C303.49 24.36 306.35 28.61 307.63 31.46C309.67 35.99 310.29 39.47 310.1 45.56C309.86 51.57 309.35 53.68 307.05 58.33C300.13 72 284 78.48 269.35 73.44C263.8 71.57 257.04 66.65 257.04 64.58C257.04 63.76 261.11 59.5 277.83 42.79C300.52 20.1 299.59 20.88 301.97 22.99ZM299.7 27.48C299.55 27.48 296.3 30.68 292.44 34.55C286.62 40.48 285.56 41.69 286.19 41.93C286.62 42.05 291.15 42.16 296.3 42.12L305.68 42.08L305.56 40.33C305.33 37.63 303.61 33.02 301.7 30.06C300.76 28.61 299.86 27.44 299.7 27.48ZM285.52 46.58C285.37 46.69 288.45 50.05 292.4 54L299.59 61.18L300.45 60.21C301.85 58.6 302.95 56.65 304.24 53.53C305.29 50.83 305.96 47.32 305.45 46.81C305.17 46.54 285.95 46.34 285.52 46.58ZM277.16 50.09C276.81 50.09 262.9 64.15 262.9 64.5C262.9 65.05 264.66 66.18 268.18 67.98C271.38 69.58 274.12 70.4 276.19 70.4L277.36 70.4L277.36 60.24C277.36 54.66 277.28 50.09 277.16 50.09ZM281.89 50.09C281.77 50.09 281.66 54.66 281.66 60.24L281.66 70.4L283.14 70.4C286.07 70.4 292.71 67.63 295.21 65.44L296.46 64.31L289.31 57.2C285.37 53.29 282.05 50.09 281.89 50.09ZM147.66 9.67C147.66 11.12 147.35 11.31 142.98 12.6C141.38 13.07 139.7 13.62 139.27 13.81C138.84 13.97 137.78 14.32 136.92 14.59C136.06 14.87 134.62 15.37 133.72 15.8C132.78 16.19 131.8 16.51 131.53 16.51C131.26 16.51 130.28 16.86 129.38 17.29C128.52 17.72 127.63 18.07 127.43 18.07C127.2 18.07 126.53 18.34 125.95 18.65C124.42 19.43 123.33 19.4 122.51 18.5C121.73 17.6 121.8 15.76 122.66 15.33C123.48 14.91 126.45 13.58 128.25 12.8C129.07 12.44 130.36 12.05 131.1 11.94C131.8 11.82 132.43 11.59 132.43 11.43C132.43 11.27 133.25 10.92 134.3 10.65C135.32 10.41 136.49 10.02 136.92 9.87C137.35 9.67 138.95 9.13 140.44 8.66C141.96 8.19 143.52 7.68 143.95 7.49C146.02 6.66 147.66 7.64 147.66 9.67Z" />
	<path id="Path 5" class="shp0" d="M210.91 32.79C210.56 32.87 210.09 33.34 209.89 33.81C209.66 34.31 209.54 42.05 209.54 53.72C209.58 64.23 209.47 72.98 209.35 73.21C209.07 73.68 208.76 73.29 206.26 69.03C205.36 67.51 204.35 65.83 204 65.24C202.63 63.02 200.32 62.98 199.78 65.21C199.46 66.38 200.01 67.47 204.11 74.11C205.68 76.69 207.55 79.77 208.25 80.94C209.93 83.91 210.52 84.46 211.77 84.46C213.06 84.46 213.8 83.76 214.93 81.57C215.36 80.71 215.87 79.89 216.03 79.77C216.18 79.65 216.69 78.79 217.2 77.86C217.67 76.92 218.22 75.94 218.45 75.71C218.65 75.47 219.19 74.62 219.66 73.83C220.13 73.02 221.38 70.95 222.43 69.23C224.51 65.75 224.58 64.7 222.86 63.76C222.12 63.37 221.65 63.33 221.18 63.6C220.13 64.27 218.33 66.96 216.42 70.79C216.03 71.53 215.33 72.51 214.9 72.9L214.07 73.64L214.07 53.92C214.07 38.77 213.96 34.08 213.61 33.61C213.02 32.91 211.85 32.56 210.91 32.79ZM341.03 33.18C340.25 33.73 340.25 34.12 340.25 53.14C340.25 63.8 340.1 72.78 339.94 73.02C339.71 73.37 339.32 73.02 338.65 71.92C338.14 71.06 337.48 70.09 337.24 69.81C336.97 69.54 336.74 69.19 336.74 69.07C336.74 68.37 333.89 64.23 333.14 63.88C332.01 63.37 330.49 63.88 330.45 64.81C330.33 66.92 330.92 68.33 334.35 73.72C335.17 75.01 336.97 77.9 338.38 80.16C340.88 84.22 340.92 84.26 342.36 84.26C343.85 84.26 343.93 84.18 346.19 80.55C347.44 78.52 348.73 76.3 349.04 75.63C349.32 74.97 349.86 74.23 350.18 73.91C350.53 73.64 350.8 73.29 350.8 73.13C350.8 72.94 351.7 71.37 352.75 69.66C353.85 67.94 354.71 66.18 354.71 65.79C354.71 64.77 353.42 63.37 352.44 63.37C351.39 63.37 350.68 64.27 346.11 71.84L344.75 74.11L344.63 54.04C344.59 41.11 344.39 33.77 344.16 33.49C343.53 32.71 341.89 32.56 341.03 33.18Z" />
	<path id="Path 6" fill-rule="evenodd" class="shp0" d="M278.73 90.74C337.79 90.74 336.66 90.71 340.49 92.5C345.49 94.85 348.96 98.2 351.35 103.09C356.5 113.47 352.05 126.75 341.78 131.83C336.62 134.33 335.6 134.44 316.42 134.44C300.29 134.44 296.66 134.64 294.35 135.62C293.92 135.77 292.98 136.16 292.24 136.44C289.94 137.29 286.66 139.72 283.3 143C279.2 147.1 278.96 147.1 275.05 143.27C270.41 138.7 269.35 138 264.47 135.89C261.38 134.56 259.43 134.44 242.32 134.44C229.08 134.44 224.54 134.33 222.28 133.9C218.88 133.23 217.98 132.92 217.98 132.45C217.98 132.26 217.63 132.1 217.16 132.1C216.73 132.1 215.36 131.4 214.11 130.54C206.34 125.31 202.94 115.78 205.48 106.41C206.73 101.84 209.11 98.28 212.9 95.43C213.65 94.88 214.35 94.3 214.46 94.18C214.9 93.63 218.33 92.07 220.52 91.45C222.71 90.82 226.73 90.74 278.73 90.74ZM280.29 95.16C250.01 95.12 224.7 95.2 224.04 95.28C221.73 95.59 217.98 97.11 216.18 98.48C213.68 100.39 210.72 104.34 209.93 106.83C208.49 111.48 208.92 116.75 210.99 120.31C211.38 121.01 211.73 121.75 211.73 121.99C211.73 122.53 216.57 127.18 217.75 127.73C222.04 129.76 222.2 129.76 240.13 129.76C260.8 129.76 262.63 129.95 268.96 132.92C271.46 134.09 273.37 135.5 277.52 139.33C279.23 140.89 279 140.93 282.09 137.92C284.16 135.85 286.54 134.21 289.08 133C295.49 129.95 297.2 129.76 317.87 129.76C334.55 129.76 335.21 129.72 337.4 128.94C344.28 126.36 348.34 121.05 349.08 113.55C349.39 110.58 348.54 107.11 346.7 103.87C344.67 100.16 341.78 97.81 337.09 95.9C335.49 95.28 332.09 95.2 280.29 95.16Z" />
	<path id="Path 7" fill-rule="evenodd" class="shp0" d="M256.65 109.18C258.33 110.9 258.88 112.89 258.26 115C257.32 118.04 254.59 119.6 251.15 119.02C247.98 118.47 245.91 114.96 246.85 111.72C247.44 109.8 249.19 108.01 250.72 107.77C253.72 107.3 255.17 107.65 256.65 109.18ZM251.58 112.38C250.56 113.59 252.08 115.58 253.3 114.57C254.04 113.94 254.12 112.93 253.45 112.26C252.83 111.64 252.16 111.68 251.58 112.38ZM282.05 108.16C285.06 110.19 285.8 113.24 284.16 116.56C282.87 119.1 278.61 120.03 275.91 118.39C274.43 117.46 273.06 115.11 273.06 113.47C273.1 111.99 274.43 109.1 275.29 108.79C275.68 108.63 276.23 108.28 276.5 108.01C277.28 107.26 280.87 107.34 282.05 108.16ZM278.41 112.22C277.52 112.77 277.59 114.02 278.57 114.53C279.51 115.07 280.48 114.45 280.48 113.32C280.48 112.38 279.31 111.76 278.41 112.22ZM310.33 109.84C311.7 111.48 311.78 114.84 310.49 116.75C307.79 120.66 301.31 119.64 300.02 115.11C299.16 112.07 300.72 108.67 303.26 107.93C306.31 107.07 308.45 107.65 310.33 109.84ZM304.51 112.54C304.12 113.83 304.67 115 305.56 114.84C306.7 114.68 307.36 113.55 306.81 112.65C306.19 111.64 304.82 111.6 304.51 112.54ZM372.36 98.05C373.85 99.57 383.22 118.28 383.22 119.72C383.22 120.89 382.09 121.95 380.84 121.95C379.83 121.95 379.59 121.64 377.75 117.81C376.7 115.54 374.12 110.51 372.05 106.64C368.22 99.45 367.79 98.05 369.47 97.62C370.25 97.38 371.97 97.66 372.36 98.05ZM25.12 104.76C25.94 104.76 27.35 106.13 27.35 106.99C27.35 107.34 26.29 109.72 25.04 112.34C22.23 118.08 18.56 126.09 18.17 127.41C17.7 128.98 16.8 129.76 15.43 129.76C13.67 129.76 12.97 128.43 13.79 126.6C14.1 125.85 14.49 124.76 14.61 124.17C15.08 122.1 22.89 105.94 23.75 105.27C24.1 105 24.73 104.76 25.12 104.76ZM390.14 139.05C390.8 139.44 391.62 141.51 392.6 145.22C393.07 146.9 393.73 149.28 394.05 150.46C395.45 155.53 396.82 163.11 396.51 163.93C396.11 164.98 395.22 165.37 393.97 165.06C392.91 164.79 392.44 163.89 391.86 160.77C391.19 157.52 388.5 146.86 387.56 143.82C386.54 140.65 386.54 140.5 387.52 139.52C388.34 138.7 389.32 138.54 390.14 139.05ZM10.12 147.76C11.06 148.66 11.06 149.95 9.96 153.58C9.69 154.56 9.18 156.82 8.79 158.66C8.4 160.49 7.97 162.48 7.81 163.15C7.62 163.77 7.27 165.88 7.03 167.83C6.8 169.75 6.41 171.82 6.17 172.44C5.63 173.81 4.22 174.2 2.89 173.3C1.91 172.68 1.88 172.52 2.15 170.22C2.46 167.21 3.71 160.57 4.69 156.43C5.12 154.67 5.47 152.68 5.47 152.02C5.47 151.39 5.66 150.85 5.86 150.85C6.09 150.85 6.25 150.42 6.25 149.91C6.25 149.4 6.64 148.5 7.15 147.96C8.2 146.75 8.95 146.67 10.12 147.76Z" />
	<path id="Path 8" fill-rule="evenodd" class="shp0" d="M272.55 173.89C272.71 177.28 272.24 179.32 270.8 181.58C270.29 182.4 270.02 183.18 270.25 183.3C270.52 183.49 272.75 182.44 273.96 181.54C274.86 180.92 278.34 180.25 280.95 180.21C284.2 180.21 286.85 180.99 289.63 182.83C291.19 183.85 291.7 184.04 292.05 183.65C292.4 183.26 292.28 182.67 291.54 181.03C289.7 177.05 289.51 173.85 290.8 169.86C293.14 162.76 301.62 159.01 308.42 162.01C312.09 163.66 315.49 168.03 316.15 172.05C316.42 173.89 316.66 174.01 318.22 173.18C318.81 172.87 320.41 172.4 321.78 172.13C328.38 170.84 335.21 174.43 338.34 180.88C340.76 185.84 340.68 190.8 338.07 195.8C337.4 197.08 336.82 198.26 336.74 198.41C336.66 198.53 337.4 199 338.38 199.43C343.61 201.77 350.37 208.76 351 212.47C351.11 213.29 351.39 214.07 351.54 214.19C352.05 214.5 351.97 219.27 351.43 221.14C350.68 223.83 348.61 226.3 346.11 227.51L343.89 228.6L309.2 228.99L308.65 230.83C308.38 231.88 307.95 232.7 307.75 232.7C307.52 232.7 307.36 233.01 307.36 233.4C307.36 234.42 304.74 236.8 302.48 237.86C300.52 238.75 300.37 238.75 282.36 238.87C260.33 239.03 260.09 238.99 256.34 235.24C255.29 234.18 254.43 232.78 253.84 231.22L252.94 228.79L236.42 228.79C225.83 228.79 219.82 228.64 219.66 228.4C219.54 228.17 219.04 228.01 218.57 228.01C216.97 228.01 213.92 225.24 212.55 222.59C211.5 220.59 211.26 219.7 211.26 217.7C211.26 214.11 212.55 210.79 215.32 207.12C217.47 204.27 221.22 201.18 224.47 199.54C226.11 198.72 226.15 198.65 225.56 197.83C222.32 193.3 221.69 186.31 224.04 181.15C225.25 178.57 227.59 175.64 229.27 174.71C234.78 171.58 238.02 171.11 243.06 172.75C244.7 173.3 246.11 173.73 246.19 173.73C246.26 173.73 246.42 173.03 246.54 172.17C246.97 168.93 249.86 164.67 252.9 162.76C253.65 162.33 255.05 161.74 256.07 161.43C264.39 159.17 272.12 165.02 272.55 173.89ZM259.47 165.53C257.4 165.53 256.81 165.72 255.17 166.78C254.12 167.48 252.75 168.81 252.12 169.75C251.07 171.27 250.95 171.74 250.91 174.43C250.91 176.93 251.07 177.68 251.85 178.92C252.94 180.72 254.43 182.17 255.91 182.95C257.4 183.73 261.58 183.77 263.06 182.99C269.74 179.47 270.09 170.72 263.69 166.66C262.2 165.72 261.46 165.53 259.47 165.53ZM297.09 168.03C296.7 168.5 296.03 169.24 295.6 169.75C294.47 171.08 294.12 175.49 294.98 177.72C297.48 184.16 304.98 185.72 309.47 180.76C311.11 178.89 312.05 176.74 312.05 174.75C312.05 171.27 309.94 167.83 306.85 166.35C303.69 164.83 299.2 165.61 297.09 168.03ZM238.14 176.46C235.87 176.5 234.94 176.7 233.57 177.44C230.01 179.39 228.06 181.93 227.28 185.64C226.73 188.26 226.97 190.25 228.14 192.98C230.64 198.72 237.51 201.46 242.75 198.8C243.61 198.37 245.09 197.2 246.11 196.23C247.59 194.78 248.1 193.92 248.8 191.69C249.78 188.41 249.62 185.84 248.18 182.87C246.93 180.33 245.72 179.04 243.14 177.64C241.3 176.62 240.64 176.46 238.14 176.46ZM324.39 176.46C321.39 176.46 321.11 176.54 318.88 177.99C317.44 178.89 316.15 180.1 315.56 181.07C315.02 181.97 314.47 182.71 314.31 182.71C314.16 182.71 313.85 183.73 313.61 184.94C311.97 192.83 316.97 199.7 324.35 199.7C329.94 199.66 333.77 196.54 335.29 190.72C336.54 185.84 334.47 180.96 329.9 177.99C327.67 176.54 327.4 176.46 324.39 176.46ZM278.45 184.82C275.72 185.56 274.86 186.03 273.06 187.79C271.19 189.59 269.62 192.59 269.23 195.09C268.92 197.24 269.82 201.77 270.83 203.02C272.44 205.05 275.44 207.71 276.07 207.71C276.42 207.71 276.93 207.9 277.2 208.18C277.48 208.45 278.88 208.64 280.8 208.64C282.71 208.64 284.12 208.45 284.39 208.18C284.66 207.9 285.09 207.71 285.33 207.71C286.42 207.71 288.65 205.79 290.13 203.57C292.91 199.39 293.18 195.72 291.03 191.11C289.67 188.18 287.44 186.27 284.08 185.1C281.46 184.2 280.99 184.16 278.45 184.82ZM264.74 187.13C262.91 188.02 258.8 188.26 255.52 187.59L253.84 187.28L253.84 189.12C253.84 190.99 252.55 195.37 251.69 196.38C251.42 196.69 251.07 197.36 250.95 197.83C250.72 198.57 251.03 198.84 253.34 200.05C256.46 201.69 260.76 205.44 262.52 208.02C263.18 209.03 263.76 209.89 263.84 209.97C263.96 210.17 267.87 208.06 268.1 207.71C268.18 207.55 267.51 205.99 266.62 204.19L264.98 200.99L265.01 196.62C265.01 192.59 265.09 192.09 266.26 189.59C266.97 188.1 267.51 186.85 267.51 186.81C267.51 186.31 266.19 186.46 264.74 187.13ZM294.9 187.17C294.59 187.56 294.7 188.22 295.52 189.98C296.5 192.05 296.62 192.71 296.62 196.58C296.62 200.25 296.46 201.18 295.64 203.02C295.13 204.19 294.39 205.6 294 206.11C293.22 207.12 293.1 207.71 293.69 207.71C293.88 207.71 294.9 208.21 295.92 208.8C299 210.6 299 210.6 300.41 208.57C302.63 205.28 307.01 201.38 310.17 199.86C311.19 199.35 312.05 198.76 312.05 198.57C312.05 198.37 311.7 197.63 311.23 196.89C309.98 194.9 308.92 191.69 308.92 189.94C308.92 187.48 308.61 187.24 306.07 187.79C303.45 188.38 300.17 188.18 298.42 187.28C296.81 186.46 295.49 186.42 294.9 187.17ZM244.43 202.94C242.59 203.84 241.81 203.96 238.41 203.96C235.21 204 234.11 203.8 232.24 203.06C230.17 202.2 229.82 202.16 228.37 202.67C226.58 203.25 222.75 205.64 221.65 206.89C221.22 207.32 220.68 207.71 220.36 207.71C220.09 207.71 219.86 207.94 219.86 208.25C219.86 208.53 219.58 208.99 219.27 209.27C218.92 209.54 218.02 210.91 217.24 212.31C216.03 214.5 215.79 215.24 215.79 217.27C215.79 219.19 215.99 219.97 216.73 221.02C217.94 222.74 218.33 223.09 219.35 223.68C220.36 224.19 252.98 224.34 253.49 223.83C253.61 223.64 253.96 222.82 254.23 221.96C254.51 221.1 255.17 219.7 255.68 218.88C256.81 217.12 256.85 217.08 258.72 214.93C260.29 213.1 260.33 212.98 259.39 211.42C257.63 208.57 253.41 204.97 249.86 203.29C246.77 201.85 246.73 201.85 244.43 202.94ZM331.58 202.4C328.93 203.84 328.22 204 324.55 204C320.99 204 320.29 203.84 317.83 202.59C316.74 202.04 315.72 202.16 313.46 203.22C309.86 204.86 306.7 207.55 304.27 211.03C302.56 213.53 302.56 213.76 304.24 215.6C305.1 216.53 306.5 218.76 307.4 220.59C308.3 222.43 309.16 223.99 309.31 224.11C309.51 224.23 317.28 224.23 326.62 224.11C343.03 223.91 343.69 223.87 344.71 223.09C346.89 221.49 347.4 220.36 347.4 217.35C347.4 215.01 347.21 214.23 346.31 212.59C344.39 209.15 340.45 205.52 336.46 203.53C333.26 201.93 332.71 201.81 331.58 202.4ZM272.59 211.03C271.5 210.52 265.25 214.62 262.12 217.86C260.29 219.81 259.51 221.02 258.53 223.48C257.05 227.15 257.12 228.72 258.76 231.18C260.91 234.34 259.86 234.18 281.11 234.22C299.9 234.26 299.98 234.26 301.5 233.4C306.27 230.63 305.45 222.98 299.7 217.27C297.24 214.81 290.88 210.83 289.39 210.83C289.2 210.83 288.45 211.14 287.75 211.53C284.12 213.56 278.49 213.64 274.16 211.73C273.41 211.38 272.71 211.07 272.59 211.03ZM397.52 183.65C399.71 183.65 399.79 184.08 399.94 197.12C400.1 209.78 400.06 209.93 398.03 210.4C395.92 210.91 395.88 210.6 395.61 197.08C395.45 188.61 395.53 184.47 395.8 184.16C396.04 183.88 396.78 183.65 397.52 183.65ZM3.83 192.71C4.14 193.02 4.3 194.82 4.3 198.06C4.34 200.79 4.49 206.3 4.69 210.4C5.08 217.7 5.04 217.82 4.26 218.49C3.28 219.34 1.84 219.38 1.21 218.64C0.51 217.82 0.04 210.91 0 201.85C0 194.78 0.08 193.57 0.67 192.94C1.37 192.16 3.13 192.01 3.83 192.71ZM395.57 228.95C397.83 228.95 397.99 229.97 396.74 236.29C395.84 240.86 394.71 246.02 392.95 253.01C392.48 254.96 391.15 255.86 389.71 255.2C389.2 254.96 388.65 254.41 388.54 254.02C388.38 253.59 388.97 250.47 389.83 247.07C390.69 243.63 391.86 238.4 392.4 235.43C392.95 232.43 393.58 229.77 393.81 229.46C394.05 229.19 394.87 228.95 395.57 228.95ZM7.66 238.09C7.93 238.32 8.98 242.03 10.08 246.33C11.17 250.62 12.5 255.62 13.09 257.46C13.63 259.3 14.02 261.29 13.99 261.95C13.87 263.04 13.75 263.12 12.07 263.24L10.31 263.36L9.42 260.5C8.91 258.94 8.28 256.95 7.97 256.09C7.15 253.59 5.47 246.91 5.47 246.02C5.43 245.55 5.12 244.18 4.69 243.01C3.71 240.2 3.71 239.14 4.77 238.05C5.63 237.11 6.72 237.11 7.66 238.09Z" />
	<path id="&lt;Path&gt;" class="shp4" d="M73.03 173.35L168.21 173.35C181.78 173.35 192.79 189 192.79 208.31L192.79 208.31C192.79 227.62 181.78 243.27 168.21 243.27L97.6 243.27C84.03 243.27 73.03 258.92 73.03 278.23L73.03 279.1C73.03 298.41 84.03 314.06 97.6 314.06L253.92 314.06" />
	<path id="&lt;Path&gt;" class="shp1" d="M33.22 53.35C33.22 31.17 51.2 13.2 73.38 13.2C95.56 13.2 113.54 31.17 113.54 53.35C113.54 68.13 100.16 96.4 73.38 138.15C46.61 96.4 33.22 68.13 33.22 53.35Z" />
	<path id="Path 10 copy" class="shp0" d="M18.83 280.97C17.62 282.53 18.48 284.84 24.65 296.12C29.3 304.56 30.16 305.53 32.07 304.56C33.36 303.93 33.44 302.37 32.27 300.34C30 296.43 26.17 289.4 24.26 285.58C21.68 280.54 21.64 280.5 20.31 280.5C19.73 280.5 19.06 280.73 18.83 280.97ZM42.27 320.02C41.99 320.29 41.8 320.88 41.8 321.35C41.8 322.64 47.31 329.35 55.43 337.99C58.29 340.99 59.61 341.42 60.79 339.66C61.64 338.38 61.37 337.83 58.13 334.31C53.44 329.2 52.39 327.99 48.91 323.77C45.78 319.9 45.39 319.59 44.14 319.59C43.36 319.55 42.54 319.75 42.27 320.02Z" />
	<path id="Path 11 copy" class="shp0" d="M74.46 352.44C73.21 354.19 73.48 354.62 77.93 358.18C79.03 359.03 80.2 360.01 80.59 360.36C80.94 360.67 81.41 360.95 81.57 360.95C81.76 360.95 82.23 361.26 82.66 361.65C83.44 362.39 91.3 367.86 92.7 368.64C94.54 369.7 96.49 368.88 96.49 367.04C96.49 366.02 95.79 365.24 93.52 363.76C89.61 361.22 84.57 357.67 84.46 357.35C84.38 357.2 84.15 357.04 83.91 357.04C83.72 357.04 82.54 356.22 81.33 355.25C80.12 354.27 78.6 353.06 77.93 352.55C76.45 351.34 75.24 351.3 74.46 352.44ZM112.78 376.49C111.88 377.51 111.96 378.64 113.01 379.58C113.87 380.44 124.23 385.16 125.12 385.16C125.4 385.16 125.79 385.32 126.02 385.51C126.45 385.94 131.69 387.86 133.88 388.4C136.92 389.14 138.48 387.5 136.88 385.24C136.57 384.77 135.91 384.38 135.4 384.38C134.93 384.38 134.38 384.22 134.15 384.07C133.95 383.87 132.66 383.32 131.26 382.86C129.85 382.39 127.98 381.65 127.08 381.22C126.14 380.83 125.28 380.47 125.09 380.47C124.89 380.47 123.8 380.01 122.62 379.46C117.82 377.12 114.73 375.79 114.07 375.79C113.72 375.79 113.13 376.1 112.78 376.49ZM155.67 391.57C154.81 392.81 155.24 394.38 156.57 394.85C157.55 395.2 158.56 395.43 164.19 396.49C170.99 397.77 178.29 398.67 180.52 398.48C180.87 398.48 181.34 397.97 181.61 397.42C181.96 396.56 181.96 396.21 181.49 395.51C180.87 394.57 180.17 394.42 172.27 393.36C168.64 392.85 166.96 392.58 161.14 391.41C156.3 390.43 156.42 390.43 155.67 391.57Z" />
	<path id="Path 11" class="shp0" d="M267.36 382.45C268.14 383.56 267.94 384.68 266.79 385.5C265.84 386.25 255.03 389.81 254.13 389.71C253.86 389.68 253.46 389.79 253.2 389.96C252.73 390.34 247.31 391.67 245.08 391.97C241.97 392.37 240.6 390.57 242.44 388.49C242.8 388.06 243.5 387.74 244.01 387.8C244.47 387.85 245.03 387.76 245.28 387.63C245.5 387.46 246.84 387.05 248.29 386.74C249.74 386.43 251.69 385.9 252.63 385.58C253.6 385.29 254.49 385.03 254.69 385.06C254.88 385.08 256.02 384.73 257.25 384.32C262.28 382.52 265.49 381.54 266.16 381.61C266.5 381.65 267.05 382.03 267.36 382.45ZM223.06 392.71C223.78 394.04 223.18 395.55 221.81 395.87C220.8 396.11 219.76 396.23 214.06 396.66C207.16 397.19 199.8 397.28 197.61 396.84C197.26 396.8 196.85 396.24 196.64 395.67C196.38 394.78 196.42 394.43 196.96 393.78C197.69 392.92 198.4 392.84 206.37 392.66C210.03 392.56 211.73 392.47 217.65 391.95C222.57 391.51 222.45 391.5 223.06 392.71Z" />
	<path id="&lt;Compound Path&gt;" fill-rule="evenodd" class="shp5" d="M318.5 336.21L313.08 352.62L306.12 352.62L323.84 300.46L331.97 300.46L349.78 352.62L342.58 352.62L337 336.21L318.5 336.21ZM335.61 330.95L330.5 315.94C329.34 312.53 328.57 309.44 327.79 306.42L327.64 306.42C326.86 309.51 326.01 312.69 325 315.86L319.9 330.95L335.61 330.95Z" />
</svg>