<svg version="1.2" baseProfile="tiny-ps" xmlns="http://www.w3.org/2000/svg" viewBox="0 0 293 265" width="293" height="265">
	<title>old-illustration-svg</title>
	<defs>
		<clipPath clipPathUnits="userSpaceOnUse" id="cp1">
			<path d="M0 264.51L292.69 264.51L292.69 0L0 0L0 264.51Z" />
		</clipPath>
		<clipPath clipPathUnits="userSpaceOnUse" id="cp2">
			<path d="M0 264.51L292.69 264.51L292.69 0L0 0L0 264.51Z" />
		</clipPath>
		<clipPath clipPathUnits="userSpaceOnUse" id="cp3">
			<path d="M0 264.51L292.69 264.51L292.69 0L0 0L0 264.51Z" />
		</clipPath>
		<clipPath clipPathUnits="userSpaceOnUse" id="cp4">
			<path d="M0 264.51L292.69 264.51L292.69 0L0 0L0 264.51Z" />
		</clipPath>
		<clipPath clipPathUnits="userSpaceOnUse" id="cp5">
			<path d="M0 264.51L292.69 264.51L292.69 0L0 0L0 264.51Z" />
		</clipPath>
		<clipPath clipPathUnits="userSpaceOnUse" id="cp6">
			<path d="M0 264.51L292.69 264.51L292.69 0L0 0L0 264.51Z" />
		</clipPath>
		<clipPath clipPathUnits="userSpaceOnUse" id="cp7">
			<path d="M0 264.51L292.69 264.51L292.69 0L0 0L0 264.51Z" />
		</clipPath>
		<clipPath clipPathUnits="userSpaceOnUse" id="cp8">
			<path d="M0 264.51L292.69 264.51L292.69 0L0 0L0 264.51Z" />
		</clipPath>
		<clipPath clipPathUnits="userSpaceOnUse" id="cp9">
			<path d="M0 264.51L292.69 264.51L292.69 0L0 0L0 264.51Z" />
		</clipPath>
		<clipPath clipPathUnits="userSpaceOnUse" id="cp10">
			<path d="M0 264.51L292.69 264.51L292.69 0L0 0L0 264.51Z" />
		</clipPath>
		<clipPath clipPathUnits="userSpaceOnUse" id="cp11">
			<path d="M0 264.51L292.69 264.51L292.69 0L0 0L0 264.51Z" />
		</clipPath>
	</defs>
	<style>
		tspan { white-space:pre }
		.shp0 { fill: none;stroke: #072442;stroke-width: 3 } 
		.shp1 { fill: #072442 } 
		.shp2 { fill: none;stroke: #4154f1;stroke-width: 3 } 
	</style>
	<g id="Layer">
		<path id="Layer" class="shp0" d="M158.22 177.41L150.06 177.41C149.42 181.85 145.64 185.27 141.03 185.27C136.42 185.27 132.64 181.85 132 177.41L123.84 177.41C123.46 177.41 123.08 177.45 122.7 177.54C122.33 177.62 121.97 177.74 121.62 177.91C121.27 178.07 120.95 178.27 120.64 178.5C120.34 178.74 120.06 179 119.82 179.3L108.3 190.51L113.53 200.98L121.39 195.74L121.39 242.88L160.67 242.88L160.67 195.74L168.53 200.98L173.76 190.51L162.24 179.3C161.99 179 161.72 178.74 161.41 178.5C161.11 178.27 160.78 178.07 160.44 177.91C160.09 177.75 159.73 177.62 159.35 177.54C158.98 177.45 158.6 177.41 158.22 177.41L158.22 177.41ZM69.97 99.42C69.97 99.42 78.86 89.54 88.74 99.42" />
		<path id="Layer" fill-rule="evenodd" class="shp1" d="M75.2 86.82C75.2 86.18 74.94 85.56 74.48 85.1C74.03 84.65 73.41 84.39 72.77 84.39C72.12 84.39 71.51 84.65 71.05 85.1C70.6 85.56 70.34 86.18 70.34 86.82C70.34 87.46 70.6 88.08 71.05 88.54C71.51 88.99 72.12 89.25 72.77 89.25C73.41 89.25 74.03 88.99 74.48 88.54C74.94 88.08 75.2 87.46 75.2 86.82ZM87.64 85.14C87.19 84.69 86.58 84.44 85.94 84.44C85.31 84.44 84.7 84.69 84.24 85.14C83.79 85.58 83.53 86.18 83.51 86.82C83.5 87.47 83.75 88.1 84.21 88.57C84.66 89.03 85.29 89.3 85.94 89.3C86.59 89.3 87.22 89.03 87.68 88.57C88.13 88.1 88.38 87.47 88.37 86.82C88.36 86.18 88.1 85.58 87.64 85.14Z" />
		<path id="Layer" class="shp0" d="M83.11 159.39L83.11 176.12M74.75 167.76L91.48 167.76M171.74 37.99L171.74 54.72M163.37 46.35L180.1 46.35M250.65 115.69L250.65 132.42M242.28 124.05L259.01 124.05M21.2 30.94L21.2 54.48M9.43 42.71L32.97 42.71M227.58 240.97L227.58 264.51M215.81 252.74L239.35 252.74M155.95 119.57L155.95 133.39M149.04 126.48L162.86 126.48M110.19 116.22L69.39 116.22L58.01 126.65L58.01 116.22L48.52 116.22L48.52 68.78L110.19 68.78L110.19 116.22ZM222.13 56.5L244.73 56.5L257.24 68.38L257.24 56.5L263.63 56.5L263.63 24.57L222.13 24.57L222.13 56.5Z" />
		<g id="Clip-Path" clip-path="url(#cp1)">
			<path id="Layer" class="shp0" d="M199.74 143.19L218.71 143.19L218.71 83.41L199.74 83.41L199.74 143.19ZM199.74 100.02L218.71 100.02M201.16 83.41C201.16 81.27 202.01 79.22 203.52 77.71C205.03 76.2 207.09 75.35 209.22 75.35C211.36 75.35 213.41 76.2 214.93 77.71C216.44 79.22 217.29 81.27 217.29 83.41M59.63 190.22C59.63 202.8 49.44 212.99 36.86 212.99C24.29 212.99 14.09 202.8 14.09 190.22C14.09 177.65 24.29 167.45 36.86 167.45C49.44 167.45 59.63 177.65 59.63 190.22L59.63 190.22Z" />
		</g>
		<g id="Clip-Path" clip-path="url(#cp2)">
			<path id="Layer" class="shp0" d="M36.86 176.94L36.86 190.22L45.4 198.76" />
		</g>
		<g id="Clip-Path" clip-path="url(#cp3)">
			<path id="Layer" class="shp2" d="M128.67 84.63C128.67 84.63 160.17 69.83 180.36 98.69M89.05 129.5C89.05 129.5 114.66 134.24 127.95 162.71" />
		</g>
		<g id="Clip-Path" clip-path="url(#cp4)">
			<path id="Layer" class="shp2" d="M182.01 90.42L181.46 100.36L171.51 99.81M97.59 225.05C97.59 225.05 75.67 252.09 44.93 234.9" />
		</g>
		<g id="Clip-Path" clip-path="url(#cp5)">
			<path id="Layer" class="shp2" d="M47.05 243.07L43.22 233.88L52.41 230.05M278.22 81.2C278.22 81.2 303.34 105.3 283.65 134.5" />
		</g>
		<g id="Clip-Path" clip-path="url(#cp6)">
			<path id="Layer" class="shp2" d="M291.97 133.07L282.48 136.12L279.43 126.64M82.96 56.9C82.96 56.9 82.72 22.09 117.38 15.85" />
		</g>
		<g id="Clip-Path" clip-path="url(#cp7)">
			<path id="Layer" class="shp2" d="M110.56 10.88L119.36 15.55L114.69 24.35M180.47 221.63C180.47 221.63 191.4 198.57 213.54 193.88" />
			<path id="₹" class="shp1" d="M147.03 14.3L145.09 14.3C144.77 14.3 144.5 14.19 144.27 13.98C144.06 13.76 143.96 13.47 143.96 13.12C143.96 12.8 144.06 12.54 144.27 12.33C144.5 12.1 144.77 11.99 145.09 11.99L147.03 11.99C147.77 11.99 148.42 11.86 148.98 11.61C149.54 11.34 149.98 10.97 150.3 10.5C150.62 10.04 150.78 9.51 150.78 8.92C150.78 8.26 150.62 7.69 150.3 7.19C149.98 6.68 149.54 6.28 148.98 5.99C148.42 5.7 147.77 5.56 147.03 5.56L145.09 5.56C144.77 5.56 144.5 5.46 144.27 5.25C144.06 5.02 143.96 4.75 143.96 4.43C143.96 4.08 144.06 3.8 144.27 3.59C144.5 3.37 144.77 3.26 145.09 3.26L147.03 3.26L147.03 4.22C148.23 4.22 149.3 4.4 150.22 4.77C151.15 5.14 151.87 5.69 152.38 6.42C152.91 7.14 153.18 8.06 153.18 9.16C153.18 10.15 152.91 11.04 152.38 11.82C151.87 12.59 151.15 13.2 150.22 13.65C149.3 14.08 148.23 14.3 147.03 14.3ZM152.91 22C152.69 22 152.48 21.95 152.29 21.86C152.11 21.74 151.96 21.59 151.83 21.4L146.55 13.6L148.98 12.9L153.87 20.08C154.08 20.38 154.17 20.69 154.14 20.99C154.1 21.28 153.98 21.52 153.75 21.71C153.54 21.9 153.26 22 152.91 22ZM153.94 9.88L145.16 9.88C144.81 9.88 144.52 9.78 144.3 9.57C144.07 9.36 143.96 9.08 143.96 8.73C143.96 8.38 144.07 8.1 144.3 7.89C144.52 7.68 144.81 7.58 145.16 7.58L153.94 7.58C154.28 7.58 154.57 7.69 154.81 7.91C155.05 8.12 155.17 8.39 155.17 8.73C155.17 9.08 155.05 9.36 154.81 9.57C154.57 9.78 154.28 9.88 153.94 9.88ZM153.94 5.56L146.65 5.56C146.3 5.56 146.01 5.46 145.78 5.25C145.56 5.04 145.45 4.76 145.45 4.41C145.45 4.06 145.56 3.78 145.78 3.57C146.01 3.36 146.3 3.26 146.65 3.26L153.94 3.26C154.28 3.26 154.57 3.37 154.81 3.59C155.05 3.8 155.17 4.07 155.17 4.41C155.17 4.76 155.05 5.04 154.81 5.25C154.57 5.46 154.28 5.56 153.94 5.56Z" />
		</g>
		<g id="Clip-Path" clip-path="url(#cp8)">
			<path id="Layer" class="shp2" d="M206.52 189.2L215.5 193.49L211.21 202.48M89.94 138.16L87.5 128.5L97.16 126.06M11.25 151.32C11.25 151.32 -5.83 112.42 24.53 92.5" />
		</g>
		<g id="Clip-Path" clip-path="url(#cp9)">
			<path id="Layer" class="shp2" d="M18.84 141.02L11.37 151.52L0.87 144.06" />
		</g>
		<g id="Clip-Path" clip-path="url(#cp10)">
			<path id="Layer" class="shp0" d="M231.46 210.71L287.3 210.71L287.3 169.43L231.46 169.43L231.46 210.71Z" />
		</g>
		<g id="Clip-Path" clip-path="url(#cp11)">
			<path id="Layer" class="shp0" d="M231.46 169.43L259.38 192.5L287.3 169.43" />
		</g>
	</g>
</svg>