<svg version="1.2" baseProfile="tiny-ps" xmlns="http://www.w3.org/2000/svg" viewBox="0 0 2480 729" width="168" height="49">
	<title>magicinks-logo</title>
	<style>
		tspan { white-space:pre }
		.shp0 { fill: #4154f1 } 
		.shp1 { fill: #012970 } 
		.shp2 { fill: #ffffff } 
	</style>
	<g id="Logo blue">
		<path id="Path 1 copy 2" fill-rule="evenodd" class="shp0" d="M1580.22 122.79C1583.82 125.69 1628.03 130.43 1680.84 133.36C1733.57 135.73 1769.7 139.51 1765.38 142.01C1759.07 144.98 1758.76 146.56 1763.78 148.95C1779.69 156.64 1806.17 159.92 1811.08 154.23C1814.87 150.13 1824.97 150.58 1849.36 155.91C1867.58 159.92 1888.9 163.51 1896.47 163.83C1903.64 164.14 1916.12 168.39 1923.89 173.51C1934.88 180.83 1939.64 181.56 1951.24 176.78C1958.61 173.91 1964.68 168.89 1964.57 166.24C1964.46 163.59 1968.39 163.76 1973.22 166.62C1978.44 169.48 1993.02 171.7 2005.89 171.2C2036.28 171.47 2106.78 193.78 2146.58 215.58C2177.97 233.28 2182.59 239.08 2198.22 276.83C2201.7 285.06 2207.83 294.85 2211.96 297.51C2223.98 305.96 2231.17 318.22 2230.92 328.73C2230.3 338.69 2210.61 360.02 2202.09 359.78C2195.8 360.11 2213.47 379.92 2219.74 380.09C2222.32 380.15 2226.42 383.71 2229.04 387.73C2234.66 396.74 2228.81 398.08 2218.03 389.92C2213.19 386.35 2210.26 386.75 2207 392.11C2203.05 398.43 2204.53 399.45 2214.86 400.2C2224.42 400.43 2225.91 401.44 2220.43 404.25C2213.86 407.55 2213.86 408.03 2219.79 411.12C2223.49 413.16 2231.93 414.83 2238.9 414.99C2245.84 415.15 2251.34 417.23 2251.37 419.67C2251.4 422.61 2259.09 425.72 2268.56 427.87C2304.48 434.47 2323.95 441.68 2323.96 448.92C2323.97 452.76 2327.56 455.73 2332.94 455.84C2337.97 455.94 2344.76 460.39 2347.97 465.74C2351.53 471.09 2357.93 475.5 2362.57 475.58C2369.68 475.71 2370.38 477.16 2367.17 482.34C2363.6 487.53 2364.29 490.41 2369.25 494.29C2377.03 500.13 2374.89 501.04 2341.85 508.6C2329.04 511.27 2312.26 515.3 2304.4 517.56C2296.54 519.34 2285.43 521.57 2280.05 521.49C2274.66 521.42 2266.42 524.17 2262.12 527.44C2257.83 530.25 2234.41 533.28 2209.8 533.91C2176.72 534.93 2163.25 536.67 2159.7 541.9C2151.51 552.81 2131.42 554.98 2103.29 547.94C2080.6 542.4 2072.44 542.77 2040.34 550.13C2020.37 554.73 2004.5 560.36 2005.72 562.78C2006.92 564.74 2002.12 566.61 1995.38 566.54C1987.5 566.47 1984.81 564.99 1987.72 562.6C1993.15 557.82 1831.56 557.6 1797.85 562.16C1777.09 564.91 1773.03 568.3 1775.37 580.08C1775.53 582.53 1765.92 583.92 1753.46 583.82C1741.39 583.72 1727.42 585.09 1722.44 586.53C1716.37 588.93 1713.9 587.44 1713.47 581.54C1713.04 575.61 1716.44 573.68 1726.62 573.77C1734.06 573.84 1740.13 571.43 1739.93 568.47C1739.62 564.04 1681.5 563.98 1652.25 569.13C1644.04 570.55 1644.2 577.48 1652.41 581.03C1655.73 583.02 1657.55 586.01 1656.57 588.47C1655.58 590.93 1669.55 593 1687.65 593.13C1705.72 593.26 1723.11 595.84 1726.41 598.31C1730.56 601.76 1720.53 603.17 1693.9 602.99C1665.19 602.81 1653.11 604.69 1648.81 610.08C1644.51 615.46 1638.27 616.41 1623.38 613.37C1600 609.28 1560.06 609.04 1530.36 613.34C1510.5 616.19 1507.14 614.71 1507.75 600.28C1508.03 594.81 1496.42 596.21 1495.39 602.2C1494.88 605.17 1485.9 608.6 1475.49 610.04C1459.9 612.44 1456.53 611.43 1455.81 604.44C1455.34 599.93 1451.51 594.41 1447.27 592.87C1436.11 587.77 1428.15 574.61 1428.92 562.52C1429.72 554.43 1427.29 550.86 1420.84 548.26C1415.66 546.18 1410.35 546.62 1408.19 549.65C1406.04 552.66 1399.49 553.1 1389.57 549.45C1370.2 543.14 1367.75 547.16 1381.1 562.55C1386.8 569.19 1390 575.8 1388.16 577.8C1386.26 579.3 1378.09 572.65 1369.6 563.47C1355.79 548.07 1354.55 544.47 1354.78 524.54C1355.09 512.74 1360.18 491.2 1366.56 477.36C1372.49 462.96 1375.12 452.63 1371.93 454.13C1368.75 455.64 1359.02 458.56 1350.41 460.5C1336.07 463.89 1335.17 463.34 1339.7 455.11C1342.53 450.46 1342.73 444.74 1340.78 442.6C1338.86 440.49 1336.5 442.01 1336.08 445.66C1335 450.85 1333.24 450.29 1328.65 443.41C1319.55 430.68 1300.81 437.13 1297.71 453.82C1296.18 462.15 1292.79 465.74 1288.28 463.56C1284.69 461.95 1281.27 458.21 1280.95 455.59C1280.63 452.97 1276.55 450.81 1271.43 450.72C1263.31 450.57 1263.24 450.03 1272.08 438.66C1280.48 427.27 1280.6 424.64 1274.52 409.74C1269.72 398.54 1264.29 392.58 1258.7 392.45C1250.51 392.26 1250.51 392.26 1257.34 384.99C1264.24 378.23 1264.18 377.69 1253.8 373.71L1242.91 369.17L1253.64 361.97C1259.66 358.39 1264.04 352.06 1263.58 348.31C1263.12 344.55 1265.98 336.04 1269.8 328.63C1279.88 308.45 1277.39 305.68 1259.83 317.58C1237.83 332.05 1239.4 327.23 1262.97 307.95C1273.57 299.09 1282.3 289.09 1281.91 285.81C1281.58 283.09 1284.29 280.47 1287.76 280.58C1291.23 280.69 1293.94 278.07 1293.62 275.34C1293.23 272.06 1297.75 270.05 1303.38 270.23C1309.43 270.43 1315.16 267.91 1316.14 265.23C1317.07 261.99 1325.02 260.09 1333.23 260.37C1356.46 261.15 1348.92 251.12 1322.12 245.84C1294.78 241.07 1262.86 249.81 1268.91 260.38C1271.05 263.73 1268.81 263.1 1264.35 258.61C1256 250.66 1250.73 232.39 1258.41 238.14C1260.86 240.44 1275.97 236.02 1291.62 228.92C1307.26 221.83 1328.27 216.57 1338.24 216.94C1347.75 217.29 1355.64 214.85 1355.34 212.1C1354.98 208.79 1346.09 206.27 1335.26 205.86C1320.51 205.3 1315.47 202.92 1314.71 196.27C1314.2 191.86 1316.13 189.71 1318.94 191.48C1321.36 193.77 1328.75 194.06 1335.02 192.11C1345.94 189.23 1345.88 188.69 1337.19 180.61C1331.91 176.01 1323.69 172.35 1318.84 171.58C1311.37 170.74 1311.73 170.19 1320.88 166.7C1340.5 159.76 1343.42 154.88 1331.15 149.92L1319.79 145.55L1331.53 145.51C1338.45 145.24 1343.3 142.1 1342.81 137.66C1342.25 132.6 1351.48 129.69 1375.11 127.95C1393.58 127.09 1440.93 123.66 1480.79 121.03C1565.76 115.54 1571.19 115.23 1580.22 122.79ZM1379.97 511.54C1380.43 515.65 1382.68 520.8 1385.33 522.37C1387.58 523.94 1389.32 520.89 1388.7 515.26C1388.02 509.09 1385.43 504.44 1383.35 504.41C1380.86 504.38 1379.52 507.45 1379.97 511.54ZM1445.67 545.99C1445.93 548.53 1447.85 551.08 1450.3 551.11C1452.35 551.13 1454.14 548.62 1453.88 546.08C1453.57 543.03 1451.31 540.99 1449.25 540.97C1446.8 540.94 1445.35 542.94 1445.67 545.99ZM1629.93 572.9C1630.14 575.38 1633.13 577.89 1636.3 577.91C1639.48 577.94 1642.06 575.49 1641.86 573.01C1641.61 570.02 1638.68 568.02 1635.49 567.99C1632.31 567.96 1629.69 569.91 1629.93 572.9ZM1892.75 153.03C1897.74 157.51 1897.41 158.56 1890.99 157.73C1886.59 157.02 1877.28 154.47 1870.76 152.05L1858.51 147.23L1872.52 147.33C1880.13 147.67 1889.42 150.21 1892.75 153.03ZM1924.86 160.3C1924.98 162.96 1923.04 163.93 1920.99 162.24C1918.54 160.54 1916.82 157.8 1916.74 156.2C1916.69 155.14 1918.25 154.15 1920.62 154.26C1922.6 154.34 1924.71 157.09 1924.86 160.3ZM1742.01 598.42C1742.18 600.87 1740.4 603.3 1738.08 603.28C1736.13 603.27 1735.17 600.82 1736.17 598.38C1737.13 595.44 1738.95 593.51 1740.12 593.52C1740.89 593.52 1741.81 595.48 1742.01 598.42Z" />
		<path id="Magic copy 2" fill-rule="evenodd" class="shp1" d="M139.01 509C137.3 509 135.68 508.82 134.14 508.45C132.6 508.82 130.98 509 129.27 509C123.85 509 119.29 507.15 115.6 503.46C111.9 499.76 110.06 495.21 110.06 489.79L110.06 239.63C110.06 233.97 111.9 229.41 115.6 225.96C119.29 222.27 123.85 220.42 129.27 220.42C130.98 220.42 132.6 220.6 134.13 220.97C135.67 220.6 137.3 220.42 139.01 220.42C146.4 220.42 152.07 223.87 156.01 230.77L260.74 440.56L362.8 230.77C366.74 223.87 372.4 220.42 379.79 220.42C381.51 220.42 383.14 220.6 384.68 220.97C386.2 220.6 387.82 220.42 389.54 220.42C394.95 220.42 399.51 222.27 403.21 225.96C406.9 229.41 408.75 233.97 408.75 239.63L408.75 489.79C408.75 495.21 406.78 499.76 402.84 503.46C399.14 507.15 394.71 509 389.54 509C387.79 509 386.13 508.81 384.56 508.42C383.05 508.81 381.46 509 379.79 509C374.37 509 369.82 507.15 366.12 503.46C362.43 499.76 360.58 495.21 360.58 489.79L360.58 325.91L280.9 488.31C276.71 494.71 271.17 497.91 264.27 497.91C262.49 497.91 260.82 497.73 259.25 497.36C257.75 497.73 256.18 497.91 254.53 497.91C246.4 497.91 240.49 494.1 236.8 486.46L158.23 329.02L158.23 489.79C158.23 495.21 156.38 499.76 152.68 503.46C148.99 507.15 144.43 509 139.01 509ZM260.87 460.33L259.84 462.44L261.92 462.44L260.87 460.33ZM554.7 510.48C553.06 510.48 551.44 510.44 549.83 510.37C548.22 510.44 546.6 510.48 544.96 510.48C526.98 510.48 510.84 506.04 496.55 497.18C482.27 488.06 470.94 475.87 462.56 460.6C454.43 445.08 450.37 427.59 450.37 408.13C450.37 388.67 454.8 371.18 463.67 355.66C472.78 340.14 484.98 327.94 500.25 319.08C515.77 309.96 533.14 305.4 552.35 305.4C553.99 305.4 555.61 305.44 557.22 305.5C558.83 305.44 560.45 305.4 562.09 305.4C581.31 305.4 598.55 309.96 613.82 319.08C629.1 327.94 641.17 340.14 650.03 355.66C658.72 370.44 663.27 387.02 663.67 405.39C663.89 406.56 664 407.77 664 409L664 490C664 501.05 655.05 510 644 510L636 510C624.95 510 616 501.05 616 490L616.63 486.79C612.48 490.61 607.97 494.07 603.11 497.18C588.82 506.04 572.68 510.48 554.7 510.48ZM557.33 477.06C568.99 477.06 579.38 474.11 588.52 468.2C597.66 462.04 604.86 453.78 610.12 443.44C615.37 432.85 618 421.02 618 407.97C618 394.66 615.37 382.84 610.12 372.49C604.86 361.9 597.66 353.65 588.52 347.74C579.38 341.58 568.99 338.5 557.33 338.5C545.91 338.5 535.51 341.58 526.14 347.74C517 353.65 509.69 361.9 504.2 372.49C498.95 382.84 496.32 394.66 496.32 407.97C496.32 421.02 498.95 432.85 504.2 443.44C509.69 453.78 517 462.04 526.14 468.2C535.51 474.11 545.91 477.06 557.33 477.06ZM795.62 510.48C793.91 510.48 792.22 510.44 790.54 510.37C789 510.44 787.45 510.48 785.87 510.48C767.4 510.48 751.02 506.17 736.73 497.55C722.69 488.68 711.6 476.61 703.48 461.33C695.35 445.82 691.28 428.08 691.28 408.13C691.28 387.93 695.59 370.19 704.21 354.92C713.08 339.4 725.15 327.33 740.43 318.71C755.7 309.84 773.31 305.4 793.26 305.4C794.89 305.4 796.51 305.43 798.11 305.5C799.72 305.43 801.36 305.4 803.01 305.4C822.71 305.4 840.2 309.84 855.48 318.71C870.75 327.33 882.7 339.4 891.32 354.92C900.19 370.19 904.62 387.93 904.62 408.13L904.62 487.94C904.62 507.4 900.31 525.13 891.69 541.15C883.07 556.91 871 569.48 855.48 578.84C840.2 588.2 822.47 592.88 802.27 592.88C800.62 592.88 798.99 592.85 797.37 592.79C795.77 592.85 794.16 592.88 792.53 592.88C775.04 592.88 758.65 589.43 743.38 582.53C728.11 575.63 715.18 565.53 704.58 552.23C701.38 548.04 700.15 543.73 700.89 539.3C701.87 534.87 704.34 531.29 708.28 528.58C712.71 525.63 717.27 524.64 721.95 525.63C722.45 525.73 722.94 525.84 723.43 525.97C726.14 525.15 728.89 525.04 731.69 525.63C736.62 526.61 740.56 529.08 743.52 533.02C750.17 541.39 758.54 547.92 768.64 552.6C777.33 556.63 787.02 558.92 797.72 559.48C807.82 558.86 817.18 556.07 825.78 551.12C835.88 545.46 843.89 537.08 849.8 526C855.71 514.91 858.67 501.36 858.67 485.35L858.67 481.23C853.43 487.53 847.44 492.96 840.7 497.55C827.64 506.17 812.61 510.48 795.62 510.48ZM974.83 509C973.15 509 971.55 508.83 970.03 508.5C968.49 508.83 966.84 509 965.08 509C959.66 509 955.11 507.28 951.41 503.83C947.96 500.13 946.24 495.57 946.24 490.16L946.24 325.73C946.24 320.06 947.96 315.5 951.41 312.06C955.11 308.61 959.66 306.88 965.08 306.88C966.84 306.88 968.49 307.05 970.03 307.38C971.55 307.05 973.15 306.88 974.83 306.88C980.49 306.88 985.05 308.61 988.5 312.06C991.95 315.5 993.67 320.06 993.67 325.73L993.67 490.16C993.67 495.57 991.95 500.13 988.5 503.83C985.05 507.28 980.49 509 974.83 509ZM974.83 274C973.14 274 971.51 273.85 969.94 273.55C968.39 273.85 966.77 274 965.08 274C958.43 274 952.64 271.66 947.72 266.98C943.04 262.05 940.7 256.26 940.7 249.61C940.7 242.96 943.04 237.29 947.72 232.61C952.64 227.69 958.43 225.22 965.08 225.22C966.77 225.22 968.39 225.38 969.94 225.7C971.51 225.38 973.14 225.22 974.83 225.22C981.48 225.22 987.14 227.69 991.82 232.61C996.75 237.29 999.21 242.96 999.21 249.61C999.21 256.26 996.75 262.05 991.82 266.98C987.14 271.66 981.48 274 974.83 274ZM1147.01 510.48C1145.37 510.48 1143.73 510.45 1142.11 510.38C1140.52 510.45 1138.9 510.48 1137.27 510.48C1117.56 510.48 1099.95 506.04 1084.43 497.18C1069.16 488.06 1057.09 475.87 1048.22 460.6C1039.6 445.08 1035.29 427.59 1035.29 408.13C1035.29 388.17 1039.6 370.44 1048.22 354.92C1056.84 339.4 1068.67 327.33 1083.69 318.71C1098.72 309.84 1115.96 305.4 1135.42 305.4C1137.01 305.4 1138.58 305.44 1140.13 305.51C1141.79 305.44 1143.47 305.4 1145.17 305.4C1159.7 305.4 1173 308.24 1185.07 313.9C1197.14 319.32 1207.98 327.57 1217.59 338.66C1221.04 342.6 1222.27 346.67 1221.28 350.85C1220.3 355.04 1217.59 358.74 1213.15 361.94C1209.71 364.4 1205.89 365.26 1201.7 364.52C1201.01 364.36 1200.33 364.17 1199.66 363.94C1197.25 364.81 1194.68 365.01 1191.96 364.52C1187.77 363.54 1183.95 361.32 1180.5 357.87C1169.52 346.22 1156.1 339.87 1140.23 338.82C1129.68 339.5 1120.24 342.4 1111.91 347.53C1102.3 353.19 1094.79 361.2 1089.37 371.55C1083.95 381.89 1081.24 394.09 1081.24 408.13C1081.24 421.43 1083.95 433.25 1089.37 443.6C1095.04 453.94 1102.8 462.2 1112.65 468.35C1121.34 473.57 1131.27 476.48 1142.44 477.1C1148.93 476.78 1154.72 475.83 1159.81 474.27C1166.46 472.05 1172.5 468.72 1177.92 464.29C1181.86 461.09 1185.92 459.36 1190.11 459.12C1192.32 458.86 1194.4 459.04 1196.34 459.68C1197.5 459.37 1198.67 459.19 1199.85 459.12C1204.04 458.62 1207.73 459.73 1210.94 462.44C1215.12 465.89 1217.46 469.83 1217.96 474.27C1218.45 478.45 1216.97 482.27 1213.52 485.72C1195.79 502.23 1173.62 510.48 1147.01 510.48ZM858.4 408.1C858.5 370.17 831.54 339.44 798.08 339.35C764.61 339.25 737.48 369.83 737.37 407.75C737.26 445.67 764.22 476.41 797.69 476.5C831.15 476.6 858.29 446.02 858.4 408.1Z" />
		<path id="Path 1" class="shp2" d="M1473.6 158.81C1472.46 167.92 1467.26 181.08 1461.25 190.13C1450.66 206.19 1430.41 219.22 1411.51 222.19C1406.65 222.93 1405.1 224.08 1409.01 224.08C1413.2 224.08 1424.54 227.59 1431.76 231.16C1440.19 235.21 1446.94 240.34 1453.96 247.77C1463.88 258.23 1470.9 272.33 1473.4 286.51C1474.28 291.77 1474.35 291.84 1474.82 289.21C1477.52 274.23 1481.7 264.37 1490.07 253.23C1501.55 238.05 1516.53 228.73 1536.04 224.75C1542.58 223.4 1544.2 222.73 1540.96 222.73C1538.8 222.73 1528.68 220.43 1525.51 219.22C1510.79 213.68 1499.12 205.24 1490.21 193.84C1483.66 185.47 1477.72 172.51 1475.9 162.66C1474.41 154.9 1474.14 154.42 1473.6 158.81Z" />
		<path id="inks copy" class="shp2" d="M1478.87 508.01C1473.45 508.01 1468.89 506.29 1465.2 502.84C1461.75 499.14 1460.02 494.59 1460.02 489.17L1460.02 324.74C1460.02 319.07 1461.75 314.52 1465.2 311.07C1468.89 307.62 1473.45 305.89 1478.87 305.89C1484.54 305.89 1489.09 307.62 1492.54 311.07C1495.99 314.52 1497.71 319.07 1497.71 324.74L1497.71 489.17C1497.71 494.59 1495.99 499.14 1492.54 502.84C1489.09 506.29 1484.54 508.01 1478.87 508.01ZM1469.13 508.01C1463.71 508.01 1459.15 506.29 1455.45 502.84C1452.01 499.14 1450.28 494.59 1450.28 489.17L1450.28 324.74C1450.28 319.07 1452.01 314.52 1455.45 311.07C1459.15 307.62 1463.71 305.89 1469.13 305.89C1474.79 305.89 1479.35 307.62 1482.8 311.07C1486.25 314.52 1487.97 319.07 1487.97 324.74L1487.97 489.17C1487.97 494.59 1486.25 499.14 1482.8 502.84C1479.35 506.29 1474.79 508.01 1469.13 508.01ZM1444.74 248.62C1444.74 241.97 1444.74 255.27 1444.74 248.62ZM1730.13 508.38C1724.71 508.38 1720.15 506.66 1716.46 503.21C1713.01 499.51 1711.29 494.96 1711.29 489.54L1711.29 398.64C1711.29 384.6 1708.7 373.14 1703.53 364.28C1698.35 355.41 1691.33 348.88 1682.46 344.69C1673.84 340.26 1663.87 338.04 1652.53 338.04C1642.19 338.04 1632.83 340.13 1624.45 344.32C1616.08 348.51 1609.43 354.18 1604.5 361.32C1599.57 368.22 1597.11 376.22 1597.11 385.34L1573.83 385.34C1573.83 369.82 1577.53 356.02 1584.92 343.95C1592.55 331.64 1602.9 321.91 1615.95 314.76C1629.01 307.62 1643.67 304.05 1659.92 304.05C1676.92 304.05 1692.07 307.74 1705.37 315.13C1718.92 322.28 1729.51 332.87 1737.15 346.91C1745.03 360.95 1748.97 378.19 1748.97 398.64L1748.97 489.54C1748.97 494.96 1747.13 499.51 1743.43 503.21C1739.98 506.66 1735.55 508.38 1730.13 508.38ZM1578.27 508.38C1572.85 508.38 1568.29 506.66 1564.59 503.21C1561.14 499.51 1559.42 494.96 1559.42 489.54L1559.42 324.74C1559.42 319.07 1561.14 314.52 1564.59 311.07C1568.29 307.62 1572.85 305.89 1578.27 305.89C1583.93 305.89 1588.49 307.62 1591.94 311.07C1595.39 314.52 1597.11 319.07 1597.11 324.74L1597.11 489.54C1597.11 494.96 1595.39 499.51 1591.94 503.21C1588.49 506.66 1583.93 508.38 1578.27 508.38ZM1720.39 508.38C1714.97 508.38 1710.41 506.66 1706.72 503.21C1703.27 499.51 1701.54 494.96 1701.54 489.54L1701.54 398.64C1701.54 384.6 1698.96 373.14 1693.78 364.28C1688.61 355.41 1681.59 348.88 1672.72 344.69C1664.1 340.26 1654.12 338.04 1642.79 338.04C1632.45 338.04 1623.09 340.13 1614.71 344.32C1606.33 348.51 1599.68 354.18 1594.76 361.32C1589.83 368.22 1587.37 376.22 1587.37 385.34L1564.09 385.34C1564.09 369.82 1567.78 356.02 1575.17 343.95C1582.81 331.64 1593.16 321.91 1606.21 314.76C1619.27 307.62 1633.92 304.05 1650.18 304.05C1667.18 304.05 1682.33 307.74 1695.63 315.13C1709.18 322.28 1719.77 332.87 1727.41 346.91C1735.29 360.95 1739.23 378.19 1739.23 398.64L1739.23 489.54C1739.23 494.96 1737.38 499.51 1733.69 503.21C1730.24 506.66 1725.81 508.38 1720.39 508.38ZM1568.52 508.38C1563.1 508.38 1558.55 506.66 1554.85 503.21C1551.4 499.51 1549.68 494.96 1549.68 489.54L1549.68 324.74C1549.68 319.07 1551.4 314.52 1554.85 311.07C1558.55 307.62 1563.1 305.89 1568.52 305.89C1574.19 305.89 1578.75 307.62 1582.19 311.07C1585.64 314.52 1587.37 319.07 1587.37 324.74L1587.37 489.54C1587.37 494.96 1585.64 499.51 1582.19 503.21C1578.75 506.66 1574.19 508.38 1568.52 508.38ZM1951.83 332.87L1838.39 434.11L1815.49 408.98L1928.92 307.74C1932.62 304.29 1936.68 302.69 1941.12 302.94C1945.8 303.18 1949.74 305.16 1952.94 308.85C1956.39 312.55 1957.99 316.61 1957.74 321.04C1957.5 325.48 1955.53 329.42 1951.83 332.87ZM1821.03 508.01C1815.61 508.01 1811.17 506.41 1807.73 503.21C1804.52 499.76 1802.92 495.33 1802.92 489.91L1802.92 237.54C1802.92 232.12 1804.52 227.81 1807.73 224.6C1811.17 221.15 1815.61 219.43 1821.03 219.43C1826.45 219.43 1830.76 221.15 1833.96 224.6C1837.41 227.81 1839.13 232.12 1839.13 237.54L1839.13 489.91C1839.13 495.33 1837.41 499.76 1833.96 503.21C1830.76 506.41 1826.45 508.01 1821.03 508.01ZM1952.94 506.16C1949 509.37 1944.56 510.84 1939.64 510.6C1934.96 510.11 1931.02 507.89 1927.81 503.95L1852.8 411.2L1878.67 386.81L1955.53 481.41C1958.73 485.35 1960.08 489.66 1959.59 494.34C1959.34 498.77 1957.13 502.72 1952.94 506.16ZM1942.09 332.87L1828.65 434.11L1805.74 408.98L1919.18 307.74C1922.87 304.29 1926.94 302.69 1931.37 302.94C1936.05 303.18 1939.99 305.16 1943.2 308.85C1946.65 312.55 1948.25 316.61 1948 321.04C1947.75 325.48 1945.78 329.42 1942.09 332.87ZM1811.28 508.01C1805.87 508.01 1801.43 506.41 1797.98 503.21C1794.78 499.76 1793.18 495.33 1793.18 489.91L1793.18 237.54C1793.18 232.12 1794.78 227.81 1797.98 224.6C1801.43 221.15 1805.87 219.43 1811.28 219.43C1816.7 219.43 1821.02 221.15 1824.22 224.6C1827.67 227.81 1829.39 232.12 1829.39 237.54L1829.39 489.91C1829.39 495.33 1827.67 499.76 1824.22 503.21C1821.02 506.41 1816.7 508.01 1811.28 508.01ZM1943.2 506.16C1939.26 509.37 1934.82 510.84 1929.89 510.6C1925.21 510.11 1921.27 507.89 1918.07 503.95L1843.06 411.2L1868.93 386.81L1945.78 481.41C1948.99 485.35 1950.34 489.66 1949.85 494.34C1949.6 498.77 1947.38 502.72 1943.2 506.16ZM2078.2 509.49C2060.96 509.49 2044.95 506.9 2030.17 501.73C2015.63 496.31 2004.3 489.54 1996.17 481.41C1992.48 477.47 1990.87 473.03 1991.37 468.11C1992.11 462.93 1994.57 458.74 1998.76 455.54C2003.68 451.6 2008.49 450 2013.17 450.74C2018.1 451.23 2022.28 453.33 2025.73 457.02C2029.92 461.7 2036.57 466.13 2045.68 470.32C2055.05 474.26 2065.39 476.23 2076.72 476.23C2091.01 476.23 2101.85 473.89 2109.24 469.21C2116.88 464.53 2120.82 458.5 2121.06 451.11C2121.31 443.72 2117.74 437.31 2110.35 431.89C2103.2 426.47 2090.02 422.04 2070.81 418.59C2045.93 413.67 2027.83 406.28 2016.49 396.42C2005.41 386.57 1999.87 374.5 1999.87 360.21C1999.87 347.65 2003.56 337.3 2010.95 329.17C2018.34 320.8 2027.83 314.64 2039.4 310.7C2050.98 306.51 2063.05 304.42 2075.61 304.42C2091.87 304.42 2106.28 307 2118.85 312.18C2131.41 317.35 2141.39 324.49 2148.78 333.61C2152.22 337.55 2153.83 341.74 2153.58 346.17C2153.33 350.36 2151.24 353.93 2147.3 356.89C2143.36 359.59 2138.68 360.46 2133.26 359.47C2127.84 358.49 2123.28 356.27 2119.58 352.82C2113.43 346.91 2106.78 342.84 2099.63 340.63C2092.49 338.41 2084.24 337.3 2074.88 337.3C2064.04 337.3 2054.8 339.15 2047.16 342.84C2039.77 346.54 2036.08 351.96 2036.08 359.1C2036.08 363.54 2037.19 367.6 2039.4 371.3C2041.87 374.74 2046.55 377.95 2053.44 380.9C2060.34 383.61 2070.44 386.32 2083.74 389.03C2102.22 392.73 2116.75 397.41 2127.34 403.07C2138.18 408.74 2145.94 415.39 2150.62 423.03C2155.3 430.42 2157.64 439.04 2157.64 448.89C2157.64 460.22 2154.56 470.45 2148.41 479.56C2142.49 488.67 2133.63 495.94 2121.8 501.36C2110.22 506.78 2095.69 509.49 2078.2 509.49ZM2068.46 509.49C2051.21 509.49 2035.2 506.9 2020.42 501.73C2005.89 496.31 1994.56 489.54 1986.43 481.41C1982.73 477.47 1981.13 473.03 1981.63 468.11C1982.36 462.93 1984.83 458.74 1989.02 455.54C1993.94 451.6 1998.75 450 2003.43 450.74C2008.35 451.23 2012.54 453.33 2015.99 457.02C2020.18 461.7 2026.83 466.13 2035.94 470.32C2045.3 474.26 2055.65 476.23 2066.98 476.23C2081.27 476.23 2092.11 473.89 2099.5 469.21C2107.13 464.53 2111.07 458.5 2111.32 451.11C2111.57 443.72 2107.99 437.31 2100.6 431.89C2093.46 426.47 2080.28 422.04 2061.07 418.59C2036.19 413.67 2018.08 406.28 2006.75 396.42C1995.67 386.57 1990.12 374.5 1990.12 360.21C1990.12 347.65 1993.82 337.3 2001.21 329.17C2008.6 320.8 2018.08 314.64 2029.66 310.7C2041.24 306.51 2053.31 304.42 2065.87 304.42C2082.13 304.42 2096.54 307 2109.1 312.18C2121.67 317.35 2131.64 324.49 2139.03 333.61C2142.48 337.55 2144.08 341.74 2143.84 346.17C2143.59 350.36 2141.5 353.93 2137.55 356.89C2133.61 359.59 2128.93 360.46 2123.51 359.47C2118.09 358.49 2113.54 356.27 2109.84 352.82C2103.68 346.91 2097.03 342.84 2089.89 340.63C2082.75 338.41 2074.49 337.3 2065.13 337.3C2054.29 337.3 2045.06 339.15 2037.42 342.84C2030.03 346.54 2026.33 351.96 2026.33 359.1C2026.33 363.54 2027.44 367.6 2029.66 371.3C2032.12 374.74 2036.8 377.95 2043.7 380.9C2050.6 383.61 2060.7 386.32 2074 389.03C2092.48 392.73 2107.01 397.41 2117.6 403.07C2128.44 408.74 2136.2 415.39 2140.88 423.03C2145.56 430.42 2147.9 439.04 2147.9 448.89C2147.9 460.22 2144.82 470.45 2138.66 479.56C2132.75 488.67 2123.88 495.94 2112.06 501.36C2100.48 506.78 2085.95 509.49 2068.46 509.49Z" />
	</g>
</svg>