<svg version="1.2" baseProfile="tiny-ps" xmlns="http://www.w3.org/2000/svg" viewBox="0 0 400 400" width="400" height="400">
	<title>branded-uniform-concept-icon-corporate-branding-material-abstract-idea-thin-line-illustration-compan (1)-eps</title>
	<style>
		tspan { white-space:pre }
		.shp0 { fill: #000000 } 
	</style>
	<path id="Path 1" fill-rule="evenodd" class="shp0" d="M142.38 -0.03C153.55 -0.03 156.13 0.08 156.7 0.47C157.35 0.94 157.38 1.55 157.49 9.25L157.6 17.52L166.8 17.52C176.76 17.52 178.04 17.7 181.77 19.53C183.74 20.5 187.32 23.07 187.57 23.68C187.64 23.86 187.89 24.18 188.11 24.44C189.22 25.58 190.68 28.12 191.54 30.31L192.47 32.74L192.58 57.71L192.69 82.71L195.34 82.71C197.52 82.71 198.02 82.61 198.17 82.07C198.28 81.75 198.96 78.49 199.64 74.83C200.35 71.18 201.32 67.38 201.78 66.34C203 63.69 205.26 61.4 208.01 60.08C210.38 58.93 210.41 58.93 217.11 58.79L223.81 58.64L223.81 52.66L218.33 47.18C209.63 38.48 209.12 37.04 209.12 21.68C209.12 12.01 209.12 11.79 209.91 11.07C210.66 10.39 211.09 10.36 225.81 10.36C240.53 10.36 240.92 10.39 241.85 11.11L242.78 11.83L242.78 20.67C242.78 25.54 242.6 30.7 242.43 32.17C241.67 38.01 239.6 41.38 232.9 47.79L228.1 52.37L228.1 58.64L234.66 58.79C242.25 58.96 244.04 59.43 247.01 62.12C249.73 64.55 250.48 66.45 252.24 75.01L253.74 82.53L279.16 82.71C307.52 82.93 306.12 82.78 310.35 85.54C315.26 88.73 318.41 93.64 319.09 99.19C319.3 101.12 319.41 115.88 319.3 140.2C319.19 182.11 319.34 179.46 316.9 184.05C315.4 186.84 311.67 190.39 308.85 191.75C304.41 193.86 308.67 193.75 226.1 193.75C172.85 193.75 149.54 193.65 148.04 193.36C141.16 192.1 135.94 187.56 133.5 180.82C132.75 178.71 132.68 177.81 132.57 169.5L132.43 160.51L120.04 160.37C107.65 160.23 107.61 160.23 105 159.26C98.84 157.04 93.68 151.24 92.43 145.11C92.14 143.79 92.04 126.7 92.04 88.73C92.04 34.32 92.04 34.25 92.79 31.71C93.9 28.05 94.9 26.23 97.3 23.79C99.88 21.1 100.31 20.82 102.96 19.49C106.14 17.95 107.47 17.77 117.75 17.63L127.13 17.49L127.13 10.25C127.13 3.12 127.38 0.83 128.27 0.26C128.52 0.11 134.86 -0.03 142.38 -0.03ZM153.27 3.91L131.5 3.91L131.25 11.86C131.14 16.27 131.14 23.86 131.32 28.8L131.6 37.76L142.13 37.87C148 37.9 152.84 37.8 153.02 37.62C153.2 37.44 153.3 30.38 153.3 21.6C153.27 12.94 153.27 5.45 153.27 4.88L153.27 3.91ZM238.49 14.66L213.39 14.66L213.49 24.4L213.6 34.18L214.85 36.69C215.86 38.73 216.97 40.05 220.94 43.96C223.59 46.57 225.88 48.65 226.03 48.61C226.17 48.54 228.35 46.46 230.86 43.99C238.13 36.86 238.49 35.9 238.49 23.32L238.49 14.66ZM118.25 21.5C113.59 21.53 109.19 21.68 108.51 21.89C107.83 22.07 106.86 22.32 106.36 22.43C105.86 22.54 105.03 22.93 104.5 23.29C104 23.68 103.39 23.97 103.21 23.97C102.99 23.97 101.88 24.9 100.74 26.05C98.59 28.16 96.98 30.95 96.33 33.75C95.87 35.83 95.87 141.06 96.33 143.64C96.87 146.47 98.62 149.8 100.7 151.84C102.6 153.71 105.96 155.53 108.15 155.93C108.83 156.03 114.56 156.14 120.86 156.18L132.32 156.25L132.5 126.91L132.68 97.58L133.64 95.21C135.61 90.27 138.69 86.8 143.13 84.58C146.21 83 146.89 82.93 168.13 82.75L188.54 82.53L188.64 59.25C188.75 34.18 188.75 33.75 186.89 30.06C185.21 26.66 182.45 24.15 178.69 22.54C176.83 21.75 176.22 21.68 167.16 21.53L157.56 21.39L157.56 28.98L161.04 28.98C164.08 28.98 164.65 29.09 166.01 29.88C170.45 32.49 170.24 38.87 165.58 41.16C164.19 41.84 163.43 41.88 142.35 41.88C120.97 41.88 120.54 41.88 119.07 41.13C116.21 39.69 114.81 36.26 115.85 33.28C116.99 30.02 118.86 28.98 123.69 28.98L127.09 28.98L127.2 25.72C127.27 23.93 127.16 22.25 127.02 21.96C126.77 21.57 125.23 21.46 118.25 21.5ZM127.16 32.92L124.16 32.92C120.57 32.92 119.61 33.46 119.61 35.54C119.61 36.61 119.79 36.86 120.86 37.36C121.72 37.8 122.83 37.94 124.51 37.87L126.95 37.76L127.06 35.32L127.16 32.92ZM160.75 33L157.63 32.85L157.49 34.79C157.24 37.87 157.46 38.05 160.96 37.87C163.04 37.76 164.08 37.54 164.51 37.15C165.26 36.4 165.26 34.46 164.47 33.71C164.04 33.25 163.08 33.07 160.75 33ZM212.42 63.01C209.8 63.3 207.76 64.55 206.15 66.84C205.29 68.06 204.86 69.6 203.36 77.16C202.39 82.07 201.5 86.15 201.39 86.26C201.28 86.37 189.25 86.55 174.64 86.65C153.2 86.8 147.86 86.94 147 87.33C143.71 88.84 142.88 89.34 141.45 90.7C139.44 92.6 138.48 93.96 137.44 96.4L136.62 98.29L136.51 135.9C136.47 157.86 136.54 174.66 136.76 176.31C137.44 182.18 141.06 186.77 146.57 188.77C148.36 189.42 150.58 189.45 225.77 189.45L303.15 189.45L305.41 188.7C308.17 187.77 310.89 185.62 312.68 183.01C315.29 179.14 315.15 181.32 315.04 137.16L314.93 97.58L313.72 95.18C311.5 90.74 307.31 87.69 302.47 86.97C301.26 86.8 289.22 86.65 275.73 86.65C262.23 86.65 250.98 86.51 250.73 86.33C250.45 86.19 249.52 82.35 248.51 77.34C246.54 67.78 246.01 66.38 243.46 64.52C241.42 63.01 238.56 62.58 232.76 62.87L228.1 63.12L228.1 71.61L232.9 71.61C236.8 71.61 237.84 71.72 238.27 72.18C238.59 72.47 238.84 72.83 238.84 72.97C238.84 73.11 239.31 75.55 239.92 78.41C241.17 84.61 241.24 85.79 240.31 86.29C239.24 86.83 211.92 86.8 211.34 86.22C211.09 85.97 210.92 85.26 210.92 84.61C210.92 82.89 213.03 72.65 213.49 72.07C213.78 71.72 215.21 71.61 218.83 71.61L223.81 71.61L223.81 63.08L222.69 62.87C221.26 62.58 215.39 62.65 212.42 63.01ZM235.16 75.55L216.72 75.55L216.11 78.31C215.79 79.85 215.43 81.46 215.32 81.89L215.14 82.71L236.59 82.71L235.16 75.55Z" />
	<path id="Path 2" fill-rule="evenodd" class="shp0" d="M287.04 94.89C287.97 94.89 291.44 98.47 294.02 102.06C296.17 105.03 299.22 111.05 300.4 114.48C303.65 124.23 303.73 136.19 300.61 145.93C296.35 159.08 286.04 170.33 273.18 175.88C256.86 182.94 237.38 180.54 223.63 169.83C219.65 166.71 218.08 165.06 218.08 164.02C218.08 163.31 224.77 156.43 252.2 128.99C275.37 105.82 286.54 94.89 287.04 94.89ZM287.08 100.26C286.47 100.26 258.83 127.99 259.11 128.31C259.25 128.45 268.1 128.56 278.77 128.56C294.74 128.56 298.28 128.49 298.61 128.06C299.54 126.95 297.46 117.53 295.17 112.44C293.41 108.5 292.2 106.46 289.62 103.02C288.44 101.52 287.33 100.26 287.08 100.26ZM298.82 132.68L278.88 132.57C267.88 132.54 258.9 132.61 258.9 132.75C258.9 133.22 286.65 160.8 287.08 160.8C287.72 160.8 291.98 154.85 293.77 151.49C296.49 146.29 298.35 139.81 298.71 134.29L298.82 132.68ZM251.48 136.87L251.2 135.73L237.34 149.59C229.68 157.25 223.45 163.66 223.45 163.92C223.45 164.6 226.71 167.21 230.11 169.25C233.69 171.4 237.88 173.26 241.24 174.2C243.57 174.81 249.19 175.84 250.52 175.84L251.27 175.84L251.52 156.93C251.63 146.54 251.63 137.52 251.48 136.87ZM269.82 149.7L255.67 135.55L255.67 175.91L257.93 175.66C265.05 174.88 273.61 171.94 277.77 168.82C278.37 168.36 278.98 167.96 279.13 167.96C279.41 167.96 283.96 164.31 283.96 164.06C283.96 163.92 277.59 157.47 269.82 149.7ZM178.19 99.23C181.59 99.19 182.59 99.33 184.96 100.12C193.66 103.02 199.17 111.26 198.63 120.5C198.13 128.85 192.65 135.94 184.6 138.63C181.09 139.77 175.93 139.81 172.53 138.66C163.72 135.73 158.28 128.31 158.28 119.25C158.28 113.63 160.18 109.08 164.33 104.88C166.69 102.52 168.98 101.12 172.42 99.87C173.71 99.41 175.32 99.23 178.19 99.23ZM174.5 103.49C172.32 103.99 169.34 105.71 167.23 107.68C166.05 108.75 165.08 109.86 165.08 110.11C165.08 110.37 164.87 110.76 164.58 110.97C164.33 111.19 163.72 112.37 163.26 113.63C161.97 116.99 162.04 121.76 163.4 125.23C164.83 128.88 167.8 132.07 171.46 133.86C174.18 135.15 174.28 135.19 178.51 135.19C182.66 135.19 182.88 135.15 185.28 133.97C187.89 132.68 190.83 130.07 192.44 127.56C192.98 126.7 193.76 124.69 194.16 123.08C194.8 120.5 194.84 119.79 194.55 117.35C193.66 110.69 188.57 104.96 182.27 103.52C180.41 103.09 176.18 103.06 174.5 103.49Z" />
	<path id="Path 3" fill-rule="evenodd" class="shp0" d="M182.63 144.11C189.07 145.18 193.19 147.3 197.88 151.99C200.6 154.71 201.43 155.82 202.79 158.61C204.65 162.27 204.94 164.09 203.79 164.74C203.32 164.96 194.66 165.1 178.19 165.1L153.27 165.1L152.69 164.17C152.12 163.31 152.12 163.16 152.91 161.23C156.74 151.63 165.33 145.08 175.65 143.86C177.94 143.57 179.69 143.64 182.63 144.11ZM178.51 147.94C171.99 148.01 167.23 149.87 162.65 154.14C160.57 156.07 157.56 160.05 157.56 160.87C157.56 161.01 166.98 161.16 178.51 161.16C190.04 161.16 199.46 161.05 199.46 160.87C199.46 160.73 198.88 159.72 198.17 158.65C194.94 153.71 190.18 150.23 184.38 148.62C182.56 148.12 180.77 147.9 178.51 147.94ZM153.73 173.69L178.33 173.69C199.96 173.69 202.97 173.77 203.68 174.27C204.61 174.91 204.72 176.42 203.86 177.35C203.32 177.96 202.07 177.99 178.51 177.99C154.09 177.99 153.73 177.99 152.98 177.28C151.98 176.34 151.98 175.56 152.98 174.52L153.73 173.69ZM260.87 23.97C261.51 23.97 265.88 25.54 271.72 27.87C282.64 32.28 284.32 33.35 283.1 35.25C282.28 36.51 281.03 36.4 277.66 34.86C274.04 33.21 264.63 29.45 262.3 28.7C261.33 28.41 260.22 27.91 259.9 27.62C259.08 26.94 259.08 25.47 259.86 24.61C260.19 24.26 260.62 23.97 260.87 23.97ZM301.01 43.06C302.54 43.31 310.64 48.79 317.58 54.24C319.8 56.03 320.34 56.6 320.41 57.53C320.48 58.43 320.34 58.79 319.63 59.25C318.51 60 318.44 59.97 312.82 55.74C310.42 53.99 306.38 51.12 303.8 49.36C298.46 45.82 297.78 44.92 299.25 43.49C299.64 43.06 300.18 42.95 301.01 43.06ZM75.21 63.51C75.21 64.41 74.81 64.98 73.13 66.42C72.02 67.38 68.3 71 64.89 74.44C59.6 79.81 58.56 80.67 57.63 80.67C55.26 80.67 55.3 78.7 57.7 76.02C60.13 73.26 68.08 65.48 70.66 63.3C73.49 60.97 75.21 61.04 75.21 63.51ZM335.16 70.21C336.02 70.14 341.65 76.12 349.81 85.76C351.46 87.76 351.78 88.69 351.1 89.73C350.74 90.31 350.2 90.59 349.52 90.59C348.63 90.59 347.91 89.95 344.62 86.01C342.51 83.5 339 79.6 336.88 77.3C334.2 74.4 333.02 72.86 333.02 72.29C333.02 71.29 333.34 70.71 334.09 70.43C334.38 70.32 334.88 70.21 335.16 70.21ZM45.42 94.6C46.03 95.21 45.95 97.36 45.31 97.61C45.02 97.76 44.77 97.94 44.77 98.08C44.77 98.22 43.56 100.19 42.05 102.45C39.15 106.85 36.29 111.51 35.28 113.52C34.35 115.38 33.31 116.38 32.24 116.38C30.45 116.38 29.95 114.84 31.02 112.69C32.78 109.26 40.83 96.72 42.37 94.96C43.16 94.1 44.74 93.92 45.42 94.6ZM363.06 104.88C363.67 105.28 365.35 108.07 369.5 115.67C374.27 124.37 374.73 125.48 374.19 126.81C373.8 127.77 373.59 127.88 372.44 127.77C371.15 127.67 371.15 127.67 367.82 121.22C365.96 117.67 363.52 113.2 362.34 111.26C359.76 107 359.55 106.32 360.55 105.32C361.34 104.53 362.24 104.38 363.06 104.88ZM24.72 134.54C24.72 135.01 24.4 136.08 23.97 136.98C23 139.02 21.18 144.21 19.13 150.77C17.34 156.43 16.73 157.43 15.27 157.07C13.69 156.68 13.44 155.5 14.26 152.7C15.91 147.26 16.48 145.43 17.56 142.53C18.17 140.85 18.92 138.81 19.21 137.95C20.14 135.26 21.18 133.08 21.61 132.79C22.86 132 24.72 133.04 24.72 134.54ZM381.82 144.75C382.68 145.43 384.9 152.49 387.3 162.34C388.48 167.32 388.55 167.71 388.02 168.54C387.59 169.15 387.12 169.4 386.23 169.4C384.72 169.4 384.72 169.32 382.82 161.52C382.03 158.26 380.75 153.56 379.92 151.09C379.14 148.58 378.49 146.36 378.49 146.15C378.49 145.93 378.81 145.43 379.21 145.04C380.03 144.21 380.96 144.11 381.82 144.75ZM10.97 174.77C12.9 174.77 13.12 175.66 12.4 180.75C12.08 183.08 11.58 187.95 11.26 191.6C10.61 199.7 10.58 199.77 9.5 200.27C8.82 200.6 8.46 200.52 7.71 200.06C6.92 199.56 6.82 199.23 6.82 197.41C6.82 194.04 8.21 180.11 8.82 177.1C8.97 176.49 9.18 175.74 9.39 175.38C9.61 174.98 10.15 174.77 10.97 174.77ZM391.13 187.95C391.81 188.7 392.46 197.26 392.46 206.18C392.46 210.98 392.35 212.06 391.88 212.52C391.2 213.2 389.45 213.27 388.98 212.63C388.77 212.42 388.48 208.58 388.37 204.14C388.23 199.7 387.98 194.47 387.84 192.5C387.62 189.71 387.66 188.74 388.05 188.09C388.66 187.13 390.31 187.02 391.13 187.95Z" />
	<path id="Path 4" fill-rule="evenodd" class="shp0" d="M263.01 203.07C263.23 203.07 264.2 203.71 265.16 204.54C271.39 209.58 277.84 212.81 284.71 214.35C286.93 214.82 288.83 214.92 294.74 214.82C301.4 214.67 302.33 214.6 305.27 213.7C309.85 212.34 316.47 208.91 320.66 205.75C322.63 204.28 324.42 203.07 324.6 203.07C325.53 203.07 364.71 216.36 366.39 217.25C368.75 218.54 371.94 221.69 373.16 224.02C373.69 225.02 376.41 232.65 379.21 241.03C382.03 249.42 387.62 266 391.63 277.93C399.51 301.21 399.69 301.89 398.4 304.97C397.47 307.19 395.75 308.7 392.46 310.27C384.58 313.96 375.88 316.01 365.71 316.51L360.95 316.72L360.87 333.59C360.8 351.65 360.7 369.98 360.62 371.35C360.59 371.81 360.05 372.74 359.37 373.42L358.15 374.64L293.95 374.64C243.68 374.64 229.53 374.53 228.86 374.18C228.39 373.96 227.71 373.17 227.35 372.49C226.71 371.31 226.67 369.88 226.67 343.98L226.67 316.72L222.23 316.51C212.88 316.04 204.25 314.14 196.91 310.99C192.3 308.98 190.79 307.87 189.61 305.47C187.93 302.21 187.86 302.47 197.13 274.88C201.78 261.09 207.33 244.51 209.52 237.99C211.7 231.51 213.96 225.31 214.5 224.2C215.61 221.98 217.93 219.47 220.37 217.79C221.69 216.86 230.11 213.7 235.26 212.2C236.16 211.95 240.03 210.66 243.86 209.33C247.69 208.04 251.34 206.83 251.91 206.65C252.52 206.51 255.17 205.61 257.82 204.71C260.47 203.82 262.83 203.07 263.01 203.07ZM260.69 208.19C259.93 208.12 225.02 219.94 223.27 220.87C221.59 221.76 219.22 224.16 218.15 226.06C217.72 226.81 215.07 234.37 212.2 242.9C209.34 251.42 203.75 268.08 199.82 279.9C194.66 295.23 192.65 301.68 192.8 302.36C193.3 304.9 194.94 306.01 201.78 308.45C208.27 310.77 214.1 311.89 223.16 312.53L226.67 312.74L226.74 280.11C226.85 244.44 226.71 246.77 228.89 246.77C231.11 246.77 230.97 242.32 230.97 309.52L230.97 370.7L356.65 370.7L356.72 309.09C356.83 241.71 356.65 246.8 358.83 246.77C360.84 246.77 360.77 245.26 360.87 280.33C360.95 305.47 361.05 312.67 361.41 312.67C363.02 312.67 371.94 311.89 373.84 311.56C382.86 310.06 392.78 306.37 394.25 303.97C394.64 303.32 394.96 302.39 394.96 301.89C394.96 300.53 370.47 227.64 369.4 225.81C368.14 223.7 366.17 221.8 364.1 220.76C362.41 219.9 327.5 208.08 326.68 208.08C326.46 208.08 326.18 208.76 326.03 209.58C325.89 210.45 325.32 213.02 324.74 215.32C319.84 235.23 310.64 252.43 297.89 265.39C294.09 269.26 293.7 269.37 291.05 266.9C282.46 258.91 272.97 244.37 267.81 231.36C265.41 225.27 262.58 215.6 261.51 209.87C261.33 208.91 261.01 208.22 260.69 208.19ZM267.06 211.16C266.49 210.8 266.06 210.66 266.06 210.8C266.06 211.48 267.92 218.47 269.14 222.41C272.86 234.37 279.02 246.01 287.04 256.15C289.76 259.55 293.27 263.24 293.81 263.24C294.74 263.24 300.68 256.4 304.41 251.06C306.66 247.88 311 240.5 312.21 237.74C314.22 233.37 320.84 213.06 320.84 211.38C320.84 211.02 320.38 211.16 319.34 211.81C315.29 214.35 308.13 217.32 303.94 218.25L302.94 218.47L302.94 225.45C302.94 231.97 302.9 232.47 302.22 233.15C301.54 233.83 301.04 233.87 293.84 233.87C287.33 233.87 286.07 233.8 285.61 233.3C285.14 232.83 285.04 231.69 285 226.78C284.96 223.48 284.96 220.65 285 220.48C285.04 220.26 285 219.79 284.89 219.36C284.75 218.76 284.21 218.47 282.39 218C279.09 217.18 273.08 214.78 270.35 213.17C269.06 212.42 267.6 211.52 267.06 211.16ZM298.68 218.83L288.94 218.83L289.05 224.24L289.15 229.68L298.46 229.68L298.57 224.27L298.68 218.83Z" />
	<path id="Path 5" fill-rule="evenodd" class="shp0" d="M302.4 282.51C306.02 283.55 307.81 284.23 310.46 285.67C326.21 294.26 332.95 313.5 325.89 329.87C321.67 339.65 313.82 346.59 303.44 349.78C300.5 350.71 299.79 350.78 293.99 350.78C288.47 350.82 287.36 350.71 284.86 350C272.18 346.34 263.05 336.85 259.97 324.14C258.22 317.01 259.15 308.3 262.3 301.64C267.2 291.25 276.8 283.95 288.19 281.87C291.05 281.33 299.57 281.73 302.4 282.51ZM268.39 299.28C265.02 304.33 263.59 308.77 263.3 314.86C262.87 323.92 266.13 332.23 272.54 338.28C278.34 343.77 284.61 346.49 292.38 346.95C307.13 347.81 320.88 337.17 323.85 322.63C324.6 319.08 324.6 313 323.85 309.77C321.27 298.38 312.57 289.43 301.33 286.53C288.83 283.3 275.58 288.42 268.39 299.28Z" />
	<path id="Path 6" fill-rule="evenodd" class="shp0" d="M310.42 298.35C311.25 298.35 311.85 298.67 312.64 299.49C315.22 302.25 317.55 306.48 318.55 310.2C319.41 313.35 319.41 320.23 318.55 323.42C314.25 339.22 296.39 346.99 281.92 339.4C277.62 337.14 274.69 334.27 275.15 332.8C275.26 332.48 282.99 324.57 292.3 315.25C307.66 299.92 309.35 298.35 310.42 298.35ZM310.42 303.36C310.14 303.36 299.36 314.29 299.36 314.57C299.36 314.71 302.9 314.82 307.24 314.82C316.19 314.82 315.54 315.14 314.58 311.49C314.08 309.52 312.07 305.26 311.07 303.97C310.78 303.65 310.49 303.36 310.42 303.36ZM315.18 318.76L307.27 318.76C302.94 318.76 299.36 318.91 299.36 319.05C299.36 319.37 309.92 329.97 310.42 330.15C310.82 330.3 313.11 326.43 313.97 324.14C314.36 323.02 314.79 321.38 314.93 320.45L315.18 318.76ZM291.55 322.34C291.41 322.34 288.79 324.85 285.75 327.9C279.49 334.17 279.7 333.45 283.6 335.56C285.93 336.82 288.19 337.6 290.33 337.96L291.84 338.21L291.84 330.26C291.84 325.93 291.73 322.34 291.55 322.34ZM296.06 322.34C295.89 322.34 295.78 325.93 295.78 330.26L295.78 338.18L297.39 337.93C300.47 337.5 304.16 335.92 306.7 333.99C307.34 333.45 307.16 333.2 301.86 327.9C298.82 324.85 296.21 322.34 296.06 322.34ZM99.41 204.54C102.71 205.54 104.68 206.76 107.18 209.3C109.55 211.7 110.73 213.78 111.41 216.79L111.91 218.83L121.58 218.83C134.72 218.83 138.76 219.47 144.89 222.48C158.32 229.11 167.66 245.01 171.31 267.36C172.49 274.56 172.78 279.32 172.78 291.72C172.78 304.4 172.53 308.2 171.13 318.19C170.6 322.24 170.56 323.31 170.92 323.81C171.46 324.6 180.3 335.35 183.09 338.64C184.28 340 185.81 342.37 186.53 343.84C187.78 346.45 187.82 346.59 187.82 350.82C187.82 355.05 187.78 355.16 186.5 357.84C184.45 361.96 181.48 364.72 177.08 366.4C175.25 367.12 174.28 367.26 170.81 367.26C166.94 367.23 166.48 367.16 163.11 365.9C145.71 359.31 127.02 355.23 108.08 353.87C97.94 353.15 81.51 353.47 71.81 354.62C60.99 355.84 46.92 358.66 38.68 361.21C32.46 363.14 29.37 364.18 25.62 365.62C21.43 367.19 21.21 367.23 17.2 367.23C13.73 367.26 12.76 367.12 10.93 366.44C6.6 364.72 3.31 361.67 1.34 357.48C-0.17 354.33 -0.42 349.71 0.66 346.09C1.66 342.9 2.88 341.11 10.4 332.02C13.84 327.83 16.88 324.14 17.09 323.81C17.49 323.31 17.42 322.2 16.88 318.01C15.41 307.09 15.23 303.97 15.23 291.72C15.23 273.59 16.56 263.71 20.64 251.46C23.75 242.18 27.91 235.23 33.81 229.39C38.36 224.92 42.3 222.45 47.89 220.62C52.29 219.18 55.94 218.83 66.9 218.83C75.78 218.83 76.28 218.79 76.28 218.18C76.28 217.04 77.68 213.35 78.68 211.84C80.94 208.48 85.73 205.04 89.46 204.18C92.04 203.57 96.8 203.75 99.41 204.54ZM81.26 215.78C80.69 216.96 80.22 218.15 80.22 218.36C80.22 218.72 83.23 218.83 94.01 218.83C104.78 218.83 107.79 218.72 107.79 218.36C107.79 218.15 107.33 216.96 106.79 215.78C105.43 212.92 102.82 210.37 99.91 209.05C92.93 205.9 84.48 208.91 81.26 215.78ZM135.9 223.34L95.08 223.27C50.25 223.2 51.83 223.13 46.63 225.38C41.69 227.53 36.89 231.36 32.67 236.52C31.81 237.6 28.7 242.72 27.76 244.69C19.67 261.27 17.06 286.99 20.64 315.54C20.92 318.01 21.25 320.23 21.32 320.45C21.43 320.77 22.64 320.48 25.51 319.44C36.68 315.4 50.39 311.81 61.24 310.17C62.71 309.95 64.64 309.59 65.54 309.45C66.43 309.27 68.83 308.95 70.91 308.77C102.99 305.58 131.57 308.7 159.21 318.33C162.54 319.52 165.51 320.55 165.84 320.7C166.66 321.05 166.84 320.48 167.59 313.64C171.78 276.96 166.19 247.66 152.19 233.01C148.18 228.82 144.03 226.17 138.16 224.13L135.9 223.34ZM82.91 311.81C63.32 313.25 46.7 316.43 31.88 321.59C23.93 324.35 22.03 325.07 21.43 325.43C21.07 325.61 19.53 327.32 18.02 329.19C16.48 331.08 13.4 334.85 11.15 337.57C5.88 343.94 5.17 345.09 4.45 347.81C3.31 352.36 4.53 356.59 8 359.85C11.87 363.54 17.09 364.32 23.11 362.14C35.5 357.66 48.03 354.15 57.3 352.61C59.17 352.29 61.6 351.9 62.68 351.68C69.66 350.46 85.02 349.21 93.65 349.21C99.7 349.21 108.97 349.75 116.03 350.5C132.03 352.18 147.97 355.98 164.9 362.14C167.55 363.11 168.63 363.29 170.99 363.29C175.11 363.25 177.44 362.28 180.34 359.38C182.31 357.45 182.7 356.8 183.38 354.58C184.92 349.5 183.7 345.77 178.47 339.5C172.92 332.87 167.77 326.57 167.48 326.11C166.94 325.14 151.65 319.87 143.6 317.87C140.73 317.19 137.83 316.43 137.15 316.26C132.68 315.11 121.51 313.32 113.16 312.46C108.29 311.96 87.1 311.49 82.91 311.81Z" />
	<path id="Path 7" fill-rule="evenodd" class="shp0" d="M104.93 235.05C115.53 238.64 123.76 247.48 126.66 258.48C127.84 263.06 127.99 269.8 126.98 274.13C124.69 284.09 118.35 292.36 109.58 296.88C93.43 305.19 73.99 299.53 64.75 283.84C63.21 281.22 62.25 278.68 61.17 274.7C59.95 270.12 60.06 263.28 61.39 258.44C62.42 254.72 63.71 251.78 65.58 248.84C70.7 240.86 78.82 235.41 88.17 233.73C93.43 232.76 99.52 233.23 104.93 235.05ZM87.52 237.99C78.47 240 70.23 246.87 66.72 255.36C64.89 259.8 64.36 263.03 64.57 268.22C64.82 274.49 66.01 278.25 69.34 283.3C72.2 287.64 76.1 291.11 80.79 293.44C85.77 295.91 87.88 296.38 94.19 296.38C98.62 296.38 99.77 296.27 102.06 295.55C110.91 292.79 117.89 286.6 121.36 278.43C124.58 270.8 124.26 261.13 120.47 253.71C116.31 245.55 109.51 240.25 100.27 237.95C97.77 237.34 90.43 237.38 87.52 237.99Z" />
	<path id="Path 8" fill-rule="evenodd" class="shp0" d="M110.05 249.27C112.09 249.27 116.67 256.29 118.03 261.45C118.82 264.57 118.82 270.16 118 273.45C116.31 280.22 111.34 286.49 105.25 289.57C101.63 291.43 98.95 292.04 94.36 292.04C88.24 292.08 84.41 290.93 79.65 287.67C76.78 285.74 75.85 284.66 75.99 283.52C76.07 282.84 80.54 278.11 92.72 265.93C104.03 254.54 109.55 249.27 110.05 249.27ZM110.01 254.65C109.87 254.65 107.33 257.05 104.39 260.02L99.02 265.39L114.63 265.39L114.38 264.03C113.95 261.59 112.77 258.51 111.55 256.58C110.87 255.51 110.19 254.65 110.01 254.65ZM100.7 269.65L99.16 269.87L109.98 280.62L110.66 279.72C111.98 278 113.45 274.85 114.06 272.45C114.38 271.09 114.59 269.91 114.49 269.83C114.24 269.58 102.35 269.4 100.7 269.65ZM101.35 277.75L95.98 272.38L95.98 280.19C95.98 289.07 95.62 288.35 99.52 287.38C102.49 286.63 106.72 284.34 106.72 283.48C106.72 283.27 104.32 280.69 101.35 277.75ZM91.75 272.91C91.61 272.91 89.1 275.31 86.17 278.25L80.83 283.59L82.87 284.88C85.05 286.28 89.57 287.96 91.11 287.96L92.04 287.96L92.04 280.44C92.04 276.28 91.93 272.91 91.75 272.91ZM10.18 218.93C10.68 219.29 10.93 220.55 11.47 225.31C11.87 228.53 12.4 232.94 12.76 235.12C13.73 241.64 13.8 242.97 13.08 243.65C12.3 244.47 11.29 244.4 10.47 243.51C9.72 242.72 8.68 237.13 7.71 228.5C7 222.16 7.03 219.76 7.75 219.04C8.43 218.36 9.32 218.33 10.18 218.93ZM117.21 377.04C120.36 378.62 131.64 383.42 133.5 383.99C135.4 384.56 136.12 386 135.18 387.39C134.65 388.22 134.4 388.29 133.29 388.11C131.82 387.89 127.63 386.21 119.97 382.77C112.77 379.58 112.27 379.33 111.8 378.54C111.23 377.61 111.66 376.07 112.59 375.72C113.52 375.32 114.2 375.5 117.21 377.04ZM264.3 385.78C265.09 386.57 265.02 388.14 264.16 388.68C263.23 389.29 252.67 392.59 247.26 393.98C241.6 395.42 241.53 395.42 240.63 394.77C240.13 394.38 239.7 393.77 239.63 393.41C239.42 391.98 240.38 391.48 245.83 390.04C252.02 388.47 256.25 387.21 259.79 385.96C262.91 384.85 263.37 384.85 264.3 385.78ZM155.02 390.58C156.67 391.08 168.34 393.3 172.24 393.84C177.01 394.48 178.33 394.99 178.33 396.17C178.33 397.14 177.76 398.14 177.08 398.42C175.9 398.86 155.38 395.27 153.55 394.31C153.2 394.13 152.8 393.55 152.69 393.02C152.48 392.26 152.66 391.91 153.41 391.23C153.98 390.76 154.66 390.47 155.02 390.58ZM220.05 394.74C220.26 394.74 220.8 394.95 221.23 395.27C222.3 396.02 222.3 397.74 221.23 398.42C220.33 399 214.25 399.54 204.22 399.93C198.81 400.14 197.95 400.11 197.13 399.57C195.95 398.82 195.91 397.14 197.02 396.35C197.67 395.88 198.96 395.77 203.4 395.74C206.44 395.74 211.38 395.52 214.32 395.27C217.29 395.02 219.87 394.77 220.05 394.74Z" />
</svg>